<svg width="20" height="20" viewBox="0 0 20 20" fill="none" xmlns="http://www.w3.org/2000/svg">
<path d="M19.3625 7.34752C18.0583 3.84252 14.8358 1.31169 11.1542 0.898353C8.26417 0.575853 5.48667 1.45419 3.33667 3.37585C2.2877 4.31464 1.44838 5.46399 0.873459 6.74896C0.298535 8.03392 0.000912959 9.42564 0 10.8334C0 13.3942 1.05083 15.9484 2.8825 17.84C3.69833 18.6834 4.875 19.1667 6.11083 19.1667H13.8875C15.1275 19.1667 16.3108 18.6775 17.1342 17.8242C19.86 14.9942 20.715 10.9792 19.3625 7.34752ZM16.5342 17.245C15.8667 17.9367 14.9017 18.3334 13.8867 18.3334H6.11083C5.09917 18.3334 4.14083 17.9425 3.48167 17.2609C1.79833 15.5225 0.833333 13.18 0.833333 10.8334C0.833333 8.22669 1.94833 5.73585 3.89333 3.99669C5.56458 2.49012 7.7366 1.65927 9.98667 1.66585C10.3425 1.66585 10.7008 1.68585 11.0625 1.72669C14.4342 2.10502 17.3858 4.42502 18.5817 7.63919C19.8208 10.9675 19.0358 14.6484 16.5342 17.245ZM14.8775 5.95502C14.7994 5.87691 14.6934 5.83303 14.5829 5.83303C14.4724 5.83303 14.3665 5.87691 14.2883 5.95502L10.8408 9.40252C10.587 9.2493 10.2965 9.16753 10 9.16585C9.08083 9.16585 8.33333 9.91335 8.33333 10.8325C8.33333 11.7517 9.08083 12.4992 10 12.4992C10.9192 12.4992 11.6667 11.7517 11.6667 10.8325C11.6667 10.5242 11.5767 10.2392 11.43 9.99169L14.8775 6.54419C14.9556 6.46605 14.9995 6.36009 14.9995 6.2496C14.9995 6.13912 14.9556 6.03316 14.8775 5.95502ZM9.99917 11.6667C9.77815 11.6667 9.56619 11.5789 9.40991 11.4226C9.25363 11.2663 9.16583 11.0544 9.16583 10.8334C9.16583 10.6123 9.25363 10.4004 9.40991 10.2441C9.56619 10.0878 9.77815 10 9.99917 10C10.2202 10 10.4321 10.0878 10.5884 10.2441C10.7447 10.4004 10.8325 10.6123 10.8325 10.8334C10.8325 11.0544 10.7447 11.2663 10.5884 11.4226C10.4321 11.5789 10.2202 11.6667 9.99917 11.6667ZM16.1108 8.16669C16.4787 9.0075 16.6677 9.9156 16.6658 10.8334C16.6669 12.4737 16.0621 14.0566 14.9675 15.2784C14.8934 15.3602 14.79 15.4094 14.6799 15.4153C14.5697 15.4213 14.4616 15.3834 14.3792 15.31C14.297 15.2362 14.2474 15.1327 14.2415 15.0224C14.2356 14.9121 14.2737 14.8039 14.3475 14.7217C15.3049 13.6529 15.8337 12.2682 15.8325 10.8334C15.8325 10.0217 15.6692 9.23752 15.3475 8.50002C15.3072 8.3995 15.3077 8.28724 15.3488 8.18704C15.3898 8.08685 15.4683 8.00658 15.5675 7.96324C15.6668 7.9199 15.779 7.91691 15.8804 7.95488C15.9818 7.99286 16.0645 8.06883 16.1108 8.16669ZM9.99917 5.00002C6.78333 5.00002 4.16583 7.61752 4.16583 10.8334C4.16583 12.2717 4.69333 13.6525 5.65083 14.7217C5.68838 14.7622 5.7175 14.8098 5.73647 14.8617C5.75545 14.9136 5.76391 14.9688 5.76137 15.024C5.75883 15.0792 5.74533 15.1333 5.72166 15.1833C5.698 15.2332 5.66463 15.2779 5.62351 15.3149C5.58239 15.3518 5.53434 15.3801 5.48215 15.3983C5.42997 15.4165 5.37468 15.4241 5.31953 15.4207C5.26437 15.4173 5.21044 15.403 5.16088 15.3785C5.11132 15.3541 5.06711 15.32 5.03083 15.2784C3.93626 14.0566 3.33146 12.4737 3.3325 10.8334C3.3325 7.15752 6.32333 4.16669 9.99917 4.16669C10.9258 4.16669 11.8225 4.35335 12.6658 4.72169C12.7637 4.76805 12.8397 4.8507 12.8776 4.95211C12.9156 5.05352 12.9126 5.16573 12.8693 5.26498C12.8259 5.36422 12.7457 5.44269 12.6455 5.48376C12.5453 5.52484 12.433 5.52529 12.3325 5.48502C11.5967 5.16353 10.8021 4.99838 9.99917 5.00002Z" fill="white"/>
</svg>
