<svg width="38" height="39" viewBox="0 0 38 39" fill="none" xmlns="http://www.w3.org/2000/svg">
<path d="M37.4063 19.4845C37.4062 23.1248 36.3267 26.6834 34.3041 29.7102C32.2816 32.737 29.407 35.0962 26.0437 36.4893C22.6805 37.8824 18.9797 38.2469 15.4092 37.5367C11.8388 36.8265 8.55918 35.0735 5.98502 32.4995C2.94416 29.4582 1.06402 25.4483 0.670864 21.1657C0.277709 16.883 1.39635 12.5978 3.83268 9.05375C3.87619 8.98783 3.93241 8.93125 3.99805 8.88733C4.0637 8.84341 4.13745 8.81303 4.21498 8.79797C4.29251 8.7829 4.37227 8.78346 4.44959 8.7996C4.5269 8.81575 4.60022 8.84715 4.66525 8.89199C4.73027 8.93682 4.7857 8.99417 4.82828 9.06069C4.87087 9.12721 4.89975 9.20156 4.91325 9.27938C4.92674 9.3572 4.92457 9.43694 4.90687 9.51391C4.88916 9.59088 4.85628 9.66355 4.81014 9.72766C2.3772 13.2664 1.35431 17.5865 1.94214 21.8404C2.52997 26.0944 4.68608 29.9752 7.98751 32.7215C11.2889 35.4679 15.4974 36.8815 19.7873 36.6851C24.0772 36.4887 28.1389 34.6965 31.1756 31.66C34.1985 28.6363 35.9883 24.5961 36.1969 20.3255C36.4054 16.055 35.0178 11.8596 32.304 8.5557C29.5902 5.25176 25.7443 3.07557 21.5146 2.45057C17.2849 1.82557 12.974 2.79647 9.42061 5.17434L10.3602 6.29207L6.27967 7.0157L7.6928 3.11996L8.65244 4.26144C11.4194 2.38085 14.6466 1.28994 17.9871 1.10598C21.3276 0.922015 24.6551 1.65196 27.6119 3.21734C30.5686 4.78272 33.0428 7.12434 34.7685 9.99048C36.4942 12.8566 37.4062 16.1389 37.4063 19.4845Z" fill="#A855F7"/>
<path d="M19 34.3281C27.1848 34.3281 33.8438 27.6692 33.8438 19.4844C33.8438 11.2995 27.1848 4.64062 19 4.64062C10.8152 4.64062 4.15625 11.2995 4.15625 19.4844C4.15625 27.6692 10.8152 34.3281 19 34.3281ZM19 5.82812C26.5301 5.82812 32.6562 11.9543 32.6562 19.4844C32.6562 27.0145 26.5301 33.1406 19 33.1406C11.4699 33.1406 5.34375 27.0145 5.34375 19.4844C5.34375 11.9543 11.4699 5.82812 19 5.82812Z" fill="#A855F7"/>
<path d="M19 8.20312C19.1575 8.20312 19.3085 8.14057 19.4198 8.02922C19.5312 7.91787 19.5938 7.76685 19.5938 7.60938V7.01562C19.5938 6.85815 19.5312 6.70713 19.4198 6.59578C19.3085 6.48443 19.1575 6.42188 19 6.42188C18.8425 6.42188 18.6915 6.48443 18.5802 6.59578C18.4688 6.70713 18.4062 6.85815 18.4062 7.01562V7.60938C18.4062 7.76685 18.4688 7.91787 18.5802 8.02922C18.6915 8.14057 18.8425 8.20312 19 8.20312ZM19 30.7656C18.8425 30.7656 18.6915 30.8282 18.5802 30.9395C18.4688 31.0509 18.4062 31.2019 18.4062 31.3594V31.9531C18.4062 32.1106 18.4688 32.2616 18.5802 32.373C18.6915 32.4843 18.8425 32.5469 19 32.5469C19.1575 32.5469 19.3085 32.4843 19.4198 32.373C19.5312 32.2616 19.5938 32.1106 19.5938 31.9531V31.3594C19.5938 31.2019 19.5312 31.0509 19.4198 30.9395C19.3085 30.8282 19.1575 30.7656 19 30.7656ZM30.875 20.0781H31.4688C31.6262 20.0781 31.7772 20.0156 31.8886 19.9042C31.9999 19.7929 32.0625 19.6418 32.0625 19.4844C32.0625 19.3269 31.9999 19.1759 31.8886 19.0645C31.7772 18.9532 31.6262 18.8906 31.4688 18.8906H30.875C30.7175 18.8906 30.5665 18.9532 30.4552 19.0645C30.3438 19.1759 30.2812 19.3269 30.2812 19.4844C30.2812 19.6418 30.3438 19.7929 30.4552 19.9042C30.5665 20.0156 30.7175 20.0781 30.875 20.0781ZM6.53125 20.0781H7.125C7.28247 20.0781 7.43349 20.0156 7.54484 19.9042C7.65619 19.7929 7.71875 19.6418 7.71875 19.4844C7.71875 19.3269 7.65619 19.1759 7.54484 19.0645C7.43349 18.9532 7.28247 18.8906 7.125 18.8906H6.53125C6.37378 18.8906 6.22276 18.9532 6.11141 19.0645C6.00006 19.1759 5.9375 19.3269 5.9375 19.4844C5.9375 19.6418 6.00006 19.7929 6.11141 19.9042C6.22276 20.0156 6.37378 20.0781 6.53125 20.0781ZM27.3969 11.6812C27.4749 11.6813 27.5521 11.666 27.6241 11.6362C27.6962 11.6063 27.7616 11.5626 27.8167 11.5073L28.2365 11.0875C28.2927 11.0326 28.3374 10.9671 28.368 10.8948C28.3987 10.8225 28.4147 10.7448 28.4152 10.6663C28.4156 10.5878 28.4005 10.5099 28.3706 10.4373C28.3408 10.3647 28.2968 10.2987 28.2413 10.2431C28.1858 10.1876 28.1198 10.1436 28.0472 10.1138C27.9745 10.0839 27.8967 10.0688 27.8182 10.0692C27.7396 10.0696 27.662 10.0856 27.5897 10.1163C27.5174 10.1469 27.4519 10.1916 27.397 10.2478L26.977 10.6676C26.894 10.7507 26.8374 10.8565 26.8145 10.9716C26.7916 11.0868 26.8034 11.2062 26.8483 11.3147C26.8933 11.4232 26.9694 11.5159 27.067 11.5812C27.1647 11.6464 27.2795 11.6812 27.3969 11.6812ZM10.1833 28.8949C10.2612 28.895 10.3385 28.8797 10.4105 28.8498C10.4826 28.82 10.548 28.7762 10.6031 28.721L11.023 28.3011C11.0782 28.246 11.1219 28.1805 11.1518 28.1085C11.1816 28.0364 11.197 27.9592 11.197 27.8812C11.197 27.8032 11.1816 27.726 11.1518 27.654C11.1219 27.5819 11.0782 27.5165 11.023 27.4613C10.9679 27.4062 10.9024 27.3625 10.8304 27.3326C10.7583 27.3028 10.6811 27.2874 10.6031 27.2874C10.5252 27.2874 10.448 27.3028 10.3759 27.3326C10.3039 27.3625 10.2384 27.4062 10.1833 27.4613L9.7634 27.8813C9.68036 27.9643 9.62381 28.0701 9.6009 28.1853C9.57798 28.3005 9.58974 28.4198 9.63468 28.5283C9.67962 28.6368 9.75573 28.7296 9.85338 28.7948C9.95102 28.8601 10.0658 28.8949 10.1833 28.8949ZM27.8167 27.4613C27.7616 27.4062 27.6961 27.3625 27.6241 27.3326C27.552 27.3028 27.4748 27.2874 27.3969 27.2874C27.3189 27.2874 27.2416 27.3028 27.1696 27.3326C27.0976 27.3625 27.0321 27.4062 26.977 27.4613C26.9218 27.5165 26.8781 27.5819 26.8482 27.654C26.8184 27.726 26.803 27.8032 26.803 27.8812C26.803 27.9592 26.8184 28.0364 26.8482 28.1085C26.8781 28.1805 26.9218 28.246 26.977 28.3011L27.3969 28.721C27.5082 28.8323 27.6593 28.8949 27.8167 28.8949C27.9742 28.8949 28.1252 28.8323 28.2366 28.721C28.3479 28.6096 28.4105 28.4586 28.4105 28.3011C28.4105 28.1436 28.3479 27.9926 28.2366 27.8813L27.8167 27.4613ZM10.1833 11.5073C10.2383 11.563 10.3038 11.6073 10.376 11.6376C10.4482 11.6678 10.5256 11.6836 10.6039 11.6838C10.6822 11.684 10.7597 11.6688 10.8321 11.6389C10.9045 11.6091 10.9702 11.5652 11.0256 11.5099C11.0809 11.4545 11.1248 11.3888 11.1546 11.3164C11.1844 11.244 11.1997 11.1665 11.1994 11.0882C11.1992 11.0099 11.1835 10.9325 11.1532 10.8603C11.1229 10.7881 11.0787 10.7226 11.023 10.6676L10.603 10.2478C10.5481 10.1916 10.4826 10.1469 10.4103 10.1163C10.338 10.0856 10.2604 10.0696 10.1818 10.0692C10.1033 10.0688 10.0255 10.0839 9.95283 10.1138C9.88019 10.1436 9.8142 10.1876 9.75868 10.2431C9.70315 10.2987 9.65919 10.3647 9.62935 10.4373C9.59951 10.5099 9.58437 10.5878 9.58482 10.6663C9.58527 10.7448 9.60128 10.8225 9.63195 10.8948C9.66262 10.9671 9.70732 11.0326 9.76348 11.0875L10.1833 11.5073ZM10.2316 21.4247L15.3145 26.5075C15.3697 26.5627 15.4351 26.6064 15.5071 26.6363C15.5792 26.6661 15.6564 26.6815 15.7344 26.6815C15.8124 26.6815 15.8896 26.6661 15.9616 26.6363C16.0336 26.6064 16.0991 26.5627 16.1542 26.5075L27.7684 14.8934C27.8236 14.8383 27.8673 14.7728 27.8972 14.7008C27.927 14.6287 27.9424 14.5515 27.9424 14.4735C27.9424 14.3955 27.927 14.3183 27.8972 14.2463C27.8673 14.1742 27.8236 14.1088 27.7684 14.0536L26.5089 12.7941C26.4537 12.7389 26.3883 12.6952 26.3162 12.6653C26.2442 12.6355 26.167 12.6201 26.089 12.6201C26.011 12.6201 25.9338 12.6355 25.8617 12.6653C25.7897 12.6952 25.7242 12.7389 25.6691 12.7941L15.7344 22.7289L12.3309 19.3253C12.2758 19.2702 12.2103 19.2264 12.1383 19.1966C12.0662 19.1667 11.989 19.1514 11.911 19.1514C11.833 19.1514 11.7558 19.1667 11.6838 19.1966C11.6117 19.2264 11.5463 19.2702 11.4911 19.3253L10.2316 20.5849C10.1764 20.64 10.1327 20.7055 10.1028 20.7775C10.073 20.8496 10.0576 20.9268 10.0576 21.0048C10.0576 21.0828 10.073 21.16 10.1028 21.232C10.1327 21.3041 10.1764 21.3695 10.2316 21.4247ZM11.911 20.5849L15.3145 23.9885C15.3697 24.0436 15.4351 24.0874 15.5071 24.1172C15.5792 24.147 15.6564 24.1624 15.7344 24.1624C15.8124 24.1624 15.8896 24.147 15.9616 24.1172C16.0336 24.0874 16.0991 24.0436 16.1542 23.9885L26.089 14.0536L26.5089 14.4735L15.7344 25.248L11.4911 21.0047L11.911 20.5849Z" fill="#A855F7"/>
</svg>
