<svg width="101" height="100" viewBox="0 0 101 100" fill="none" xmlns="http://www.w3.org/2000/svg">
<path d="M57.3428 96.784V96.1086C57.3428 95.5146 57.5787 94.945 57.9987 94.5251C58.4187 94.1051 58.9883 93.8691 59.5822 93.8691H68.3443V85.9398H53.6756C51.0592 85.9398 48.9182 83.7988 48.9182 81.1824V52.6375C48.9182 52.4559 48.9307 52.2773 48.9506 52.1012C47.0522 52.9564 44.9937 53.3982 42.9115 53.3973C40.5286 53.398 38.1813 52.8198 36.0713 51.7125V54.1289C36.0713 56.082 34.9623 57.8656 33.2104 58.7293C30.8436 59.8965 28.7775 60.8289 25.6428 61.6176L17.6045 63.6406C16.3931 63.9456 15.3108 64.6297 14.5157 65.5932C13.7205 66.5568 13.2541 67.7492 13.1846 68.9965L11.5432 97.3031C11.5308 97.5243 11.5638 97.7457 11.6399 97.9537C11.7161 98.1617 11.8339 98.352 11.9861 98.513C12.1383 98.6739 12.3217 98.8021 12.5252 98.8898C12.7286 98.9774 12.9478 99.0226 13.1693 99.0226H59.5818C59.2878 99.0228 58.9966 98.9649 58.725 98.8525C58.4533 98.74 58.2064 98.5751 57.9985 98.3672C57.7906 98.1593 57.6256 97.9125 57.5131 97.6408C57.4006 97.3692 57.3427 97.078 57.3428 96.784Z" fill="#70D6F9"/>
<path d="M53.6756 47.8809H54.4361C56.5103 45.3266 57.7588 42.0781 57.7588 38.5512V26.0902C57.7588 24.1174 56.9993 22.2203 55.6377 20.7926C54.667 19.7742 53.0885 19.6809 51.9818 20.5492C50.2322 21.9227 47.2045 23.6203 42.9283 23.6203C38.6416 23.6203 35.5978 21.9145 33.8408 20.5391C32.7349 19.6738 31.1599 19.7707 30.1908 20.7867L30.1857 20.7922C28.8243 22.22 28.0648 24.117 28.0646 26.0898V38.5508C28.0646 46.7168 34.7459 53.398 42.9119 53.398C45.0599 53.398 47.1033 52.932 48.951 52.1019C49.2197 49.7355 51.2404 47.8809 53.6756 47.8809Z" fill="#F9D0B4"/>
<path d="M58.7115 27.2355C58.3873 27.2355 58.0693 27.2629 57.7588 27.3109V38.5508C57.7588 38.8856 57.7435 39.2168 57.7213 39.5465C58.0443 39.5984 58.3736 39.6328 58.7115 39.6328C62.1349 39.6328 64.9103 36.8574 64.9103 33.434C64.9103 30.0106 62.1349 27.2355 58.7115 27.2355ZM28.0642 38.5508V27.3109C27.749 27.2615 27.4305 27.2362 27.1115 27.2355C23.6881 27.2355 20.9127 30.0109 20.9127 33.4344C20.9127 36.8578 23.6881 39.6332 27.1115 39.6332C27.4494 39.6332 27.7783 39.5988 28.1017 39.5469C28.078 39.2155 28.0655 38.883 28.0642 38.5508Z" fill="#F9D0B4"/>
<path d="M57.7033 14.5707C57.2061 14.5707 56.7752 14.1871 56.7682 13.6902C56.6545 5.4168 47.2068 3.8629 37.7982 5.48751C29.8213 6.86485 23.9912 13.7824 23.9912 21.8774V28.0848C24.9372 27.529 26.0144 27.236 27.1115 27.2359C27.4357 27.2359 27.7533 27.2633 28.0643 27.3113V26.0906C28.0642 24.1178 28.8238 22.2207 30.1854 20.793L30.1904 20.7875C31.1596 19.7715 32.7346 19.6742 33.8404 20.5399C35.5975 21.9152 38.6412 23.6211 42.9279 23.6211C47.2041 23.6211 50.2318 21.9234 51.9818 20.55C53.0885 19.6813 54.667 19.775 55.6377 20.7934C56.9991 22.2212 57.7586 24.1182 57.7588 26.091V27.3117C58.074 27.2622 58.3925 27.237 58.7115 27.2363C59.8643 27.2363 60.94 27.5566 61.8647 28.1051V23.0086C61.8647 15.5996 59.1893 14.5707 57.7033 14.5707Z" fill="#5B5D60"/>
<path d="M37.0064 69.6082C37.1293 69.7311 37.2751 69.8285 37.4357 69.895C37.5962 69.9615 37.7682 69.9957 37.942 69.9957C38.1157 69.9957 38.2878 69.9615 38.4483 69.895C38.6088 69.8285 38.7547 69.7311 38.8775 69.6082L41.426 67.0598C41.5488 66.9369 41.6463 66.7911 41.7128 66.6305C41.7793 66.47 41.8135 66.298 41.8135 66.1242C41.8135 65.9505 41.7793 65.7784 41.7128 65.6179C41.6463 65.4574 41.5488 65.3115 41.426 65.1887L34.2677 58.0305C33.9456 58.3065 33.5904 58.5413 33.2103 58.7297C31.5654 59.5406 30.0654 60.2383 28.2513 60.8531L37.0064 69.6082ZM47.3361 69.6082C47.5404 69.8116 47.8056 69.9425 48.0913 69.9809C48.377 70.0193 48.6674 69.963 48.9181 69.8207V61.0586L44.7877 65.1891C44.6648 65.3119 44.5674 65.4578 44.5009 65.6183C44.4344 65.7788 44.4001 65.9509 44.4001 66.1246C44.4001 66.2984 44.4344 66.4704 44.5009 66.6309C44.5674 66.7914 44.6648 66.9373 44.7877 67.0602L47.3361 69.6082Z" fill="#9BE5F9"/>
<path d="M22.6928 82.2266H12.4178L11.5435 97.3039C11.5312 97.5251 11.5641 97.7465 11.6403 97.9545C11.7164 98.1625 11.8342 98.3528 11.9864 98.5138C12.1386 98.6747 12.3221 98.8029 12.5255 98.8906C12.729 98.9782 12.9482 99.0234 13.1697 99.0234H22.6928V82.2266ZM44.7877 65.1887L48.9181 61.0582V52.6379C48.9181 52.4563 48.9306 52.2777 48.9506 52.1016C47.0522 52.9568 44.9936 53.3986 42.9115 53.3977C40.5286 53.3984 38.1812 52.8202 36.0713 51.7129V54.1293C36.0713 55.652 35.3951 57.0695 34.2678 58.0305L41.426 65.1887C41.6799 65.4426 41.8072 65.7734 41.8119 66.1062C42.1756 66.1316 42.5416 66.1484 42.9115 66.1484C43.4154 66.1484 43.9131 66.1223 44.4049 66.075C44.417 65.7531 44.542 65.4344 44.7877 65.1887Z" fill="#F9D0B4"/>
<path d="M84.6393 99.0234H59.5822C58.9883 99.0234 58.4187 98.7875 57.9987 98.3675C57.5787 97.9475 57.3428 97.3779 57.3428 96.784V96.1086C57.3428 95.5147 57.5787 94.945 57.9987 94.5251C58.4187 94.1051 58.9883 93.8691 59.5822 93.8691H84.6393C85.2332 93.8691 85.8028 94.1051 86.2228 94.5251C86.6428 94.945 86.8787 95.5147 86.8787 96.1086V96.784C86.8787 97.3779 86.6428 97.9475 86.2228 98.3675C85.8028 98.7875 85.2332 99.0234 84.6393 99.0234Z" fill="#EDF4FC"/>
<path d="M90.5459 47.8809H53.6756C51.0592 47.8809 48.9182 50.0219 48.9182 52.6383V81.1832C48.9182 83.7996 51.0592 85.9406 53.6756 85.9406H68.3443V74.7531C68.3443 74.2504 68.544 73.7683 68.8994 73.4128C69.2549 73.0573 69.7369 72.8575 70.2396 72.8574H73.9814C74.2304 72.8574 74.4769 72.9065 74.7068 73.0017C74.9368 73.097 75.1458 73.2367 75.3218 73.4127C75.4978 73.5887 75.6374 73.7977 75.7326 74.0277C75.8278 74.2577 75.8768 74.5042 75.8768 74.7531V85.9406H90.5455C93.1619 85.9406 95.3029 83.7996 95.3029 81.1832V52.6383C95.3033 50.0215 93.1627 47.8809 90.5459 47.8809Z" fill="#5290DB"/>
<path d="M75.8772 93.8695V74.7527C75.8772 74.25 75.6775 73.7679 75.3221 73.4124C74.9666 73.0569 74.4845 72.8571 73.9818 72.857H70.24C69.9911 72.857 69.7446 72.9061 69.5146 73.0013C69.2847 73.0966 69.0757 73.2362 68.8997 73.4123C68.7237 73.5883 68.5841 73.7973 68.4889 74.0273C68.3937 74.2573 68.3447 74.5038 68.3447 74.7527V93.8695H75.8772Z" fill="#C7D7E5"/>
<path d="M59.5822 100H13.1697C12.8154 99.9993 12.465 99.9267 12.1396 99.7866C11.8142 99.6464 11.5207 99.4417 11.2767 99.1848C11.0338 98.927 10.8457 98.6225 10.724 98.2899C10.6022 97.9572 10.5493 97.6033 10.5685 97.2496L12.2103 68.941C12.3775 65.9398 14.4498 63.4289 17.3666 62.6945L25.4049 60.6711C28.5408 59.8816 30.5998 58.9285 32.7791 57.8539C33.4761 57.5135 34.0631 56.9835 34.4728 56.3247C34.8824 55.6659 35.0981 54.905 35.0951 54.1293V51.7129C35.0951 51.5448 35.1384 51.3797 35.2209 51.2333C35.3034 51.0869 35.4223 50.9643 35.566 50.8773C35.7098 50.7902 35.8736 50.7418 36.0415 50.7366C36.2095 50.7314 36.3759 50.7697 36.5248 50.8477C38.5189 51.8918 40.6681 52.4211 42.9119 52.4211C44.8674 52.4211 46.7646 52.0141 48.551 51.2109C48.7082 51.14 48.8814 51.112 49.053 51.1298C49.2246 51.1476 49.3883 51.2106 49.5276 51.3123C49.667 51.414 49.7768 51.5508 49.846 51.7088C49.9152 51.8668 49.9413 52.0403 49.9217 52.2117C49.905 52.3532 49.8962 52.4955 49.8955 52.6379V81.1824C49.8955 83.2672 51.5916 84.9633 53.6763 84.9633H68.3451C68.6041 84.9633 68.8525 85.0662 69.0356 85.2493C69.2188 85.4324 69.3217 85.6808 69.3217 85.9398V93.8691C69.3217 94.1281 69.2188 94.3765 69.0356 94.5597C68.8525 94.7428 68.6041 94.8457 68.3451 94.8457H59.5826C59.2478 94.846 58.9268 94.9791 58.6901 95.2158C58.4533 95.4525 58.3201 95.7734 58.3197 96.1082V96.7836C58.32 97.1184 58.4532 97.4395 58.6899 97.6762C58.9267 97.913 59.2477 98.0462 59.5826 98.0465C59.8416 98.0465 60.0901 98.1495 60.2732 98.3327C60.4564 98.5159 60.5592 98.7644 60.5592 99.0234C60.5591 99.2825 60.4562 99.5309 60.2729 99.714C60.0897 99.8972 59.8413 100 59.5822 100ZM37.0478 53.2371V54.1297C37.0478 56.4719 35.7431 58.5699 33.6424 59.6059C31.3615 60.7305 29.2029 61.7293 25.8814 62.5652L17.8431 64.5887C16.832 64.8397 15.9282 65.409 15.2651 66.2126C14.602 67.0162 14.2145 68.0115 14.1599 69.0519L12.5181 97.3605C12.5084 97.5394 12.5713 97.7113 12.6959 97.8426C12.8201 97.9742 12.9885 98.0465 13.1697 98.0465H56.6244C56.4536 97.6474 56.3658 97.2177 56.3662 96.7836V96.1082C56.3662 94.3348 57.8088 92.8926 59.5822 92.8926H67.3681V86.9164H53.676C50.5142 86.9164 47.942 84.3441 47.942 81.1824V53.5473C46.322 54.097 44.6226 54.3764 42.9119 54.3742C40.9026 54.3722 38.9122 53.9862 37.0478 53.2371Z" fill="black"/>
<path d="M22.6927 99.6371C22.4337 99.6371 22.1854 99.5342 22.0022 99.3511C21.8191 99.1679 21.7162 98.9195 21.7162 98.6605V73.9953C21.7162 73.7363 21.8191 73.4879 22.0022 73.3048C22.1854 73.1216 22.4337 73.0187 22.6927 73.0187C22.9517 73.0187 23.2001 73.1216 23.3833 73.3048C23.5664 73.4879 23.6693 73.7363 23.6693 73.9953V98.6605C23.6693 98.9195 23.5664 99.1679 23.3833 99.3511C23.2001 99.5342 22.9517 99.6371 22.6927 99.6371ZM43.1275 45.1726C41.2279 45.1726 39.4443 44.3976 38.3564 43.0996C38.19 42.9011 38.1093 42.6446 38.132 42.3866C38.1547 42.1286 38.279 41.8902 38.4775 41.7238C38.676 41.5574 38.9325 41.4767 39.1905 41.4994C39.4485 41.5221 39.6869 41.6464 39.8533 41.8449C40.5748 42.7058 41.7986 43.2195 43.1275 43.2195C44.456 43.2195 45.6802 42.7058 46.4017 41.8449C46.483 41.7433 46.5838 41.659 46.6981 41.5969C46.8125 41.5348 46.9381 41.4962 47.0675 41.4833C47.197 41.4704 47.3278 41.4835 47.4521 41.5219C47.5764 41.5602 47.6918 41.623 47.7915 41.7066C47.8913 41.7902 47.9733 41.8929 48.0328 42.0086C48.0922 42.1243 48.128 42.2507 48.1379 42.3805C48.1479 42.5102 48.1318 42.6406 48.0906 42.764C48.0495 42.8875 47.984 43.0014 47.8982 43.0992C46.8099 44.3976 45.0267 45.1726 43.1275 45.1726Z" fill="black"/>
<path d="M49.8255 36.1144C50.9273 36.1144 51.8205 35.2213 51.8205 34.1195C51.8205 33.0178 50.9273 32.1246 49.8255 32.1246C48.7238 32.1246 47.8306 33.0178 47.8306 34.1195C47.8306 35.2213 48.7238 36.1144 49.8255 36.1144Z" fill="black"/>
<path d="M36.4291 36.1144C37.5308 36.1144 38.424 35.2213 38.424 34.1195C38.424 33.0178 37.5308 32.1246 36.4291 32.1246C35.3273 32.1246 34.4341 33.0178 34.4341 34.1195C34.4341 35.2213 35.3273 36.1144 36.4291 36.1144Z" fill="black"/>
<path d="M19.8697 11.4062C18.6588 11.1719 17.6822 10.2344 17.4478 9.02344C17.4478 8.98438 17.3306 8.98438 17.3306 9.02344C17.0963 10.2344 16.1197 11.1719 14.9088 11.4062C14.8697 11.4062 14.8697 11.4844 14.9088 11.5234C16.1197 11.7578 17.0963 12.6953 17.3306 13.9062C17.3306 13.9453 17.4478 13.9453 17.4478 13.9062C17.6822 12.6953 18.6588 11.7578 19.8697 11.5234C19.9088 11.4844 19.9088 11.4062 19.8697 11.4062Z" fill="#70D6F9"/>
<path d="M3.92909 33.7891H4.82753V34.6875C4.82753 35.3906 5.3744 35.9375 6.07753 35.9375C6.74159 35.9375 7.32753 35.3906 7.32753 34.7266V33.7891H8.22597C8.92909 33.7891 9.47597 33.2422 9.47597 32.5391C9.47597 31.875 8.92909 31.2891 8.26503 31.2891H7.32753V30.3906C7.32753 29.6875 6.78065 29.1406 6.07753 29.1406C5.41347 29.1406 4.82753 29.6875 4.82753 30.3516V31.2891H3.92909C3.22597 31.2891 2.67909 31.8359 2.67909 32.5391C2.64003 33.2031 3.1869 33.7891 3.92909 33.7891C3.89003 33.7891 3.89003 33.7891 3.92909 33.7891Z" fill="#FC657E"/>
<path d="M9.474 55.9766C10.2075 55.9766 10.8021 55.3819 10.8021 54.6484C10.8021 53.9149 10.2075 53.3203 9.474 53.3203C8.7405 53.3203 8.14587 53.9149 8.14587 54.6484C8.14587 55.3819 8.7405 55.9766 9.474 55.9766Z" fill="#F5C84C"/>
<path d="M65.7291 2.65625C66.4626 2.65625 67.0572 2.06163 67.0572 1.32812C67.0572 0.594622 66.4626 0 65.7291 0C64.9956 0 64.4009 0.594622 64.4009 1.32812C64.4009 2.06163 64.9956 2.65625 65.7291 2.65625Z" fill="#87D147"/>
<path d="M79.1666 11.7969C80.9244 11.4844 82.2916 10.1172 82.6432 8.39844C82.6432 8.32031 82.7994 8.32031 82.7994 8.39844C83.151 10.1172 84.5182 11.4844 86.276 11.7969C86.3541 11.7969 86.3541 11.9141 86.276 11.9531C84.5182 12.2656 83.151 13.6328 82.7994 15.3516C82.7994 15.4297 82.6432 15.4297 82.6432 15.3516C82.2916 13.6328 80.9244 12.2656 79.1666 11.9531C79.0885 11.9141 79.0885 11.7969 79.1666 11.7969Z" fill="#F5C84C"/>
<path d="M42.9115 54.3746C34.1865 54.3746 27.0877 47.2762 27.0877 38.5508V26.0902C27.0839 23.8657 27.9407 21.7259 29.4787 20.1187C30.7982 18.7348 32.9302 18.5871 34.4423 19.7703C36.1173 21.0812 38.9494 22.6437 42.9279 22.6437C46.8982 22.6437 49.715 21.0871 51.3787 19.7809C52.8927 18.5926 55.0279 18.7375 56.3443 20.1184C57.8823 21.7256 58.7391 23.8653 58.7353 26.0898V38.5508C58.7353 42.1519 57.4779 45.684 55.1947 48.4961C55.1031 48.6089 54.9875 48.6998 54.8564 48.7622C54.7252 48.8247 54.5818 48.857 54.4365 48.857H53.6759C52.7472 48.8569 51.8509 49.199 51.1583 49.8178C50.4657 50.4366 50.0253 51.2888 49.9213 52.2117C49.9021 52.3801 49.8395 52.5406 49.7396 52.6774C49.6397 52.8142 49.5059 52.9227 49.3513 52.9922C47.3275 53.9058 45.132 54.3771 42.9115 54.3746ZM32.1443 20.9277C31.6865 20.9277 31.2341 21.1078 30.8974 21.4609C29.7039 22.7063 29.0387 24.3653 29.0412 26.0902V38.5508C29.0412 46.1992 35.2634 52.4215 42.9119 52.4215C44.6939 52.4215 46.4283 52.0828 48.0759 51.4141C48.3546 50.1361 49.062 48.992 50.0806 48.1716C51.0993 47.3512 52.368 46.904 53.6759 46.9043H53.9615C55.7838 44.5016 56.7822 41.5531 56.7822 38.5508V26.0902C56.7851 24.3678 56.1218 22.7109 54.931 21.4664C54.3119 20.8176 53.3033 20.7531 52.5845 21.3176C50.6787 22.8137 47.456 24.5973 42.9279 24.5973C38.3927 24.5973 35.1556 22.809 33.2384 21.3086C32.9267 21.0626 32.5414 20.9284 32.1443 20.9277Z" fill="black"/>
<path d="M58.7115 40.6094C58.3533 40.6094 57.9787 40.577 57.5658 40.5105C57.3256 40.4718 57.1085 40.3447 56.957 40.1542C56.8056 39.9638 56.7307 39.7236 56.747 39.4809C56.7709 39.123 56.7822 38.8277 56.7822 38.5508V27.3109C56.7822 27.078 56.8655 26.8527 57.0171 26.6757C57.1687 26.4988 57.3785 26.3819 57.6088 26.3461C57.9736 26.2889 58.3422 26.2597 58.7115 26.259C62.6681 26.259 65.8869 29.4777 65.8869 33.4344C65.8869 37.3906 62.6681 40.6094 58.7115 40.6094ZM58.7353 28.2121V38.5508L58.7349 38.6562C61.6037 38.6437 63.9338 36.3059 63.9338 33.434C63.9338 30.5625 61.6041 28.2246 58.7353 28.2121ZM27.1115 40.6094C23.1548 40.6094 19.9361 37.3906 19.9361 33.434C19.9361 29.4777 23.1548 26.2586 27.1115 26.2586C27.4709 26.2586 27.842 26.2879 28.2142 26.3457C28.4444 26.3815 28.6543 26.4984 28.8059 26.6753C28.9574 26.8523 29.0408 27.0776 29.0408 27.3105V38.5508C29.0408 38.8277 29.0521 39.123 29.0759 39.4805C29.0924 39.7231 29.0176 39.9632 28.8663 40.1536C28.715 40.344 28.4981 40.471 28.258 40.5098C27.8792 40.5741 27.4957 40.6074 27.1115 40.6094ZM27.0877 28.2121C24.2189 28.225 21.8892 30.5629 21.8892 33.4344C21.8892 36.3062 24.2193 38.6441 27.088 38.6566L27.0877 38.5512V28.2121Z" fill="black"/>
<path d="M61.8646 29.0805C61.6924 29.0805 61.5201 29.0348 61.3666 28.9437C60.5632 28.466 59.6462 28.2132 58.7115 28.2117C58.4521 28.2117 58.1822 28.2332 57.9088 28.2758C57.7695 28.2976 57.6272 28.2889 57.4916 28.2504C57.356 28.2119 57.2303 28.1445 57.1233 28.0528C57.0162 27.9611 56.9303 27.8473 56.8714 27.7193C56.8125 27.5912 56.7821 27.4519 56.7822 27.3109V26.0902C56.7851 24.3678 56.1218 22.7109 54.931 21.4664C54.3123 20.8176 53.3033 20.7531 52.5849 21.3176C50.6791 22.8137 47.4564 24.5973 42.9283 24.5973C38.3931 24.5973 35.156 22.809 33.2388 21.3086C32.5221 20.7476 31.5154 20.8133 30.8974 21.4613C29.7039 22.7067 29.0387 24.3657 29.0412 26.0906V27.3113C29.0412 27.4522 29.0107 27.5915 28.9517 27.7195C28.8928 27.8475 28.8069 27.9612 28.6999 28.0529C28.5928 28.1446 28.4672 28.212 28.3317 28.2505C28.1962 28.2891 28.0539 28.2978 27.9146 28.2762C27.6412 28.234 27.3713 28.2121 27.1119 28.2121C26.1931 28.2121 25.2846 28.4594 24.4842 28.9273C24.3357 29.0138 24.1672 29.0597 23.9954 29.0603C23.8236 29.0609 23.6547 29.0162 23.5057 28.9307C23.3567 28.8453 23.2328 28.722 23.1466 28.5734C23.0604 28.4248 23.0149 28.2562 23.0146 28.0844V21.8769C23.008 17.7238 24.4725 13.7025 27.1483 10.5262C29.824 7.34985 33.5382 5.22378 37.6322 4.52499C45.0916 3.2371 51.3002 4.10195 54.6674 6.89804C56.651 8.54531 57.6853 10.7976 57.7431 13.5941C59.6666 13.6113 62.8412 14.8738 62.8412 23.0074V28.1039C62.8412 28.2322 62.816 28.3592 62.767 28.4777C62.7179 28.5962 62.646 28.7039 62.5553 28.7945C62.4646 28.8852 62.3569 28.9572 62.2384 29.0062C62.1199 29.0553 61.9929 29.0805 61.8646 29.0805ZM58.7353 26.259C59.4674 26.2613 60.1935 26.3777 60.8881 26.6008V23.0078C60.8881 18.2668 59.7271 15.5473 57.7033 15.5473C56.6635 15.5473 55.806 14.7199 55.7916 13.7035C55.7607 11.4664 54.9627 9.68242 53.4197 8.40077C50.4928 5.97031 44.8592 5.25937 37.9646 6.4496C34.3247 7.07084 31.0224 8.96106 28.6433 11.7851C26.2641 14.6091 24.962 18.1844 24.9678 21.8769V26.5898C25.6536 26.3732 26.3684 26.2616 27.0877 26.259V26.0906C27.0838 23.866 27.9406 21.726 29.4787 20.1187C30.7982 18.7348 32.9303 18.5871 34.4424 19.7703C36.1174 21.0812 38.9494 22.6437 42.9279 22.6437C46.8982 22.6437 49.715 21.0871 51.3787 19.7809C52.8927 18.5926 55.0279 18.7375 56.3443 20.1184C57.8824 21.7257 58.7391 23.8656 58.7353 26.0902V26.259ZM37.942 70.9711C37.64 70.9716 37.3409 70.9126 37.0618 70.7972C36.7828 70.6818 36.5292 70.5125 36.3158 70.2988L27.5607 61.5437C27.4434 61.4263 27.3578 61.2809 27.3123 61.1213C27.2667 60.9617 27.2626 60.793 27.3004 60.6314C27.3381 60.4697 27.4164 60.3203 27.5279 60.1973C27.6394 60.0744 27.7805 59.9818 27.9377 59.9285C29.6271 59.3555 31.0424 58.7098 32.7783 57.8539C33.0791 57.7055 33.367 57.5148 33.6338 57.2875C33.8207 57.1281 34.0608 57.0451 34.3062 57.0548C34.5516 57.0646 34.7843 57.1665 34.958 57.3402L42.1162 64.4984C42.5467 64.93 42.7885 65.5148 42.7885 66.1244C42.7885 66.734 42.5467 67.3188 42.1162 67.7504L39.5678 70.2988C39.3544 70.5124 39.1009 70.6818 38.8219 70.7972C38.5429 70.9125 38.2439 70.9716 37.942 70.9711ZM37.6971 68.918C37.7621 68.9827 37.8502 69.019 37.942 69.019C38.0338 69.019 38.1218 68.9827 38.1869 68.918L40.7353 66.3695C40.8002 66.3045 40.8366 66.2164 40.8366 66.1246C40.8366 66.0328 40.8002 65.9447 40.7353 65.8797L34.1681 59.3125C33.9971 59.4195 33.8213 59.5176 33.6424 59.6059C32.3463 60.2449 31.2181 60.7726 30.0232 61.2441L37.6971 68.918ZM48.2685 70.9668C47.9674 70.9675 47.6692 70.9089 47.3907 70.7943C47.1123 70.6797 46.8592 70.5113 46.6459 70.2988L44.0974 67.7504C43.6669 67.3188 43.4251 66.734 43.4251 66.1244C43.4251 65.5148 43.6669 64.93 44.0974 64.4984L48.2283 60.368C48.3647 60.2311 48.5388 60.1378 48.7283 60.1C48.9178 60.0622 49.1143 60.0815 49.2928 60.1554C49.4714 60.2294 49.6239 60.3547 49.7311 60.5155C49.8384 60.6763 49.8954 60.8653 49.8951 61.0586V69.8207C49.8951 70.1734 49.7053 70.4984 49.3978 70.6715C49.0531 70.8655 48.6641 70.9672 48.2685 70.9668ZM47.9416 63.416L45.4779 65.8793C45.4131 65.9443 45.3767 66.0324 45.3767 66.1242C45.3767 66.216 45.4131 66.3041 45.4779 66.3691L47.9416 68.8324V63.416ZM22.6928 100H13.1697C12.8154 99.9993 12.465 99.9267 12.1396 99.7866C11.8142 99.6464 11.5207 99.4417 11.2767 99.1848C11.0338 98.927 10.8457 98.6225 10.724 98.2899C10.6022 97.9572 10.5493 97.6033 10.5685 97.2496L11.4431 82.1699C11.4576 81.9211 11.5666 81.6873 11.7479 81.5163C11.9291 81.3452 12.1689 81.25 12.4181 81.25H22.6928C22.9518 81.25 23.2001 81.3529 23.3833 81.536C23.5664 81.7192 23.6693 81.9676 23.6693 82.2266V99.0234C23.6693 99.2824 23.5664 99.5308 23.3833 99.714C23.2001 99.8971 22.9518 100 22.6928 100ZM13.3392 83.2031L12.5181 97.3605C12.5084 97.5394 12.5713 97.7113 12.6959 97.8426C12.8201 97.9742 12.9885 98.0465 13.1697 98.0465H21.7162V83.2027H13.3392V83.2031Z" fill="black"/>
<path d="M42.9115 67.125C42.5553 67.125 42.1732 67.1105 41.7439 67.0805C41.4995 67.0633 41.2705 66.955 41.1022 66.777C40.9339 66.5989 40.8386 66.3641 40.8353 66.1191C40.8353 66.0746 40.8265 66.0305 40.8094 65.9893C40.7923 65.9481 40.7673 65.9108 40.7357 65.8793L33.5775 58.7211C33.4822 58.6258 33.4076 58.5118 33.3585 58.3863C33.3094 58.2608 33.2868 58.1265 33.2922 57.9918C33.2975 57.8571 33.3307 57.725 33.3896 57.6038C33.4486 57.4826 33.5319 57.3749 33.6345 57.2875C34.0922 56.8984 34.4599 56.4145 34.7121 55.8692C34.9643 55.324 35.095 54.7304 35.0951 54.1297V51.7133C35.0951 51.5452 35.1384 51.38 35.2209 51.2337C35.3034 51.0873 35.4223 50.9646 35.566 50.8776C35.7098 50.7906 35.8736 50.7422 36.0415 50.737C36.2095 50.7318 36.3759 50.7701 36.5248 50.848C38.5189 51.8922 40.6681 52.4215 42.9119 52.4215C44.8674 52.4215 46.7646 52.0145 48.551 51.2113C48.7082 51.1404 48.8814 51.1124 49.053 51.1302C49.2246 51.148 49.3883 51.211 49.5276 51.3127C49.667 51.4144 49.7768 51.5512 49.846 51.7092C49.9152 51.8672 49.9413 52.0407 49.9217 52.2121C49.905 52.3536 49.8962 52.4958 49.8955 52.6383V61.0586C49.8955 61.1868 49.8703 61.3138 49.8212 61.4323C49.7721 61.5508 49.7002 61.6585 49.6096 61.7492L45.4791 65.8797C45.4184 65.9419 45.3837 66.0248 45.3818 66.1117C45.373 66.348 45.2787 66.5731 45.1165 66.7451C44.9543 66.9172 44.7352 67.0245 44.4998 67.0473C43.9719 67.0982 43.4419 67.1241 42.9115 67.125ZM42.5818 65.1672C42.9498 65.177 43.2838 65.1711 43.6404 65.1523C43.7529 64.9091 43.9075 64.6876 44.0971 64.498L47.9416 60.6535V53.5473C46.3216 54.097 44.6222 54.3764 42.9115 54.3742C40.9023 54.3718 38.9121 53.9858 37.0478 53.2367V54.1293C37.0478 55.5633 36.5447 56.9363 35.6416 58.0234L42.1162 64.498C42.3101 64.6915 42.4678 64.9181 42.5818 65.1672ZM84.6392 100H59.5822C57.8088 100 56.3662 98.5574 56.3662 96.784V96.1086C56.3662 94.3352 57.8088 92.893 59.5822 92.893H84.6392C86.4127 92.893 87.8553 94.3355 87.8553 96.1086V96.784C87.8553 98.5574 86.4127 100 84.6392 100ZM59.5822 94.8461C59.2474 94.8464 58.9264 94.9795 58.6897 95.2162C58.4529 95.4529 58.3197 95.7738 58.3193 96.1086V96.784C58.3196 97.1188 58.4528 97.4399 58.6896 97.6766C58.9263 97.9134 59.2474 98.0466 59.5822 98.0469H84.6392C84.9741 98.0466 85.2951 97.9134 85.5319 97.6766C85.7687 97.4399 85.9018 97.1188 85.9021 96.784V96.1086C85.9017 95.7738 85.7685 95.4529 85.5318 95.2162C85.295 94.9795 84.974 94.8464 84.6392 94.8461H59.5822Z" fill="black"/>
<path d="M90.5459 86.9168H75.8771C75.6181 86.9168 75.3697 86.8139 75.1866 86.6308C75.0035 86.4476 74.9006 86.1992 74.9006 85.9402V74.7527C74.9004 74.5091 74.8035 74.2755 74.6313 74.1032C74.459 73.9309 74.2255 73.8339 73.9818 73.8336H70.24C69.9964 73.8339 69.7627 73.9308 69.5904 74.1031C69.4181 74.2755 69.3212 74.5091 69.3209 74.7527V85.9402C69.3209 86.1992 69.218 86.4476 69.0349 86.6308C68.8517 86.8139 68.6033 86.9168 68.3443 86.9168H53.6756C50.5139 86.9168 47.9416 84.3445 47.9416 81.1828V52.6383C47.9416 49.4766 50.5139 46.9043 53.6756 46.9043H90.5459C93.7076 46.9043 96.2799 49.4766 96.2799 52.6383V81.1828C96.2799 84.3445 93.7076 86.9168 90.5459 86.9168ZM76.8537 84.9637H90.5459C92.6307 84.9637 94.3267 83.2676 94.3267 81.1828V52.6383C94.3267 50.5535 92.6307 48.8574 90.5459 48.8574H53.6756C51.5908 48.8574 49.8947 50.5535 49.8947 52.6383V81.1828C49.8947 83.2676 51.5908 84.9637 53.6756 84.9637H67.3678V74.7527C67.3678 73.1691 68.656 71.8805 70.24 71.8805H73.9818C75.5654 71.8805 76.8537 73.1688 76.8537 74.7527V84.9637Z" fill="black"/>
<g clip-path="url(#clip0_4192_20866)">
<path d="M75.877 94.8461H68.3446C68.0856 94.8461 67.8372 94.7432 67.6541 94.5601C67.4709 94.3769 67.368 94.1285 67.368 93.8695V74.7527C67.368 73.1691 68.6563 71.8805 70.2403 71.8805H73.9821C75.5657 71.8805 76.854 73.1688 76.854 74.7527V93.8695C76.8538 94.1285 76.7508 94.3769 76.5676 94.56C76.3844 94.7431 76.136 94.846 75.877 94.8461ZM69.3208 92.893H74.9001V74.7527C74.8999 74.5091 74.803 74.2755 74.6308 74.1032C74.4585 73.9309 74.225 73.8339 73.9813 73.8336H70.2395C69.9959 73.8339 69.7622 73.9308 69.5899 74.1032C69.4176 74.2755 69.3207 74.5091 69.3204 74.7527L69.3208 92.893ZM94.302 41.8789H72.7708C70.7372 41.8789 69.0833 40.2246 69.0833 38.1914V24.8637C69.0833 22.8301 70.7376 21.1762 72.7708 21.1762H94.3016C96.3352 21.1762 97.9891 22.8305 97.9891 24.8637V38.1914C97.9895 40.225 96.3352 41.8789 94.302 41.8789ZM72.7708 23.1289C72.311 23.1294 71.8701 23.3123 71.545 23.6375C71.2198 23.9626 71.0369 24.4035 71.0364 24.8633V38.1914C71.0369 38.6512 71.2198 39.0921 71.545 39.4172C71.8701 39.7424 72.311 39.9253 72.7708 39.9258H94.3016C94.7615 39.9253 95.2023 39.7424 95.5275 39.4172C95.8526 39.0921 96.0355 38.6512 96.036 38.1914V24.8637C96.0355 24.4039 95.8526 23.963 95.5275 23.6379C95.2023 23.3127 94.7615 23.1298 94.3016 23.1293L72.7708 23.1289Z" fill="black"/>
</g>
<defs>
<clipPath id="clip0_4192_20866">
<rect width="10" height="23" fill="white" transform="translate(67.3334 72)"/>
</clipPath>
</defs>
</svg>
