<svg width="400" height="320" viewBox="0 0 400 320" fill="none" xmlns="http://www.w3.org/2000/svg">
<g clip-path="url(#clip0_87_1403)">
<rect width="400" height="320" rx="8" fill="white"/>
<circle cx="137.689" cy="151.689" r="21.8543" transform="rotate(75.2822 137.689 151.689)" fill="#D1EBFF"/>
<circle cx="66.925" cy="128.53" r="8.26478" transform="rotate(75.2822 66.925 128.53)" fill="#9333EA"/>
<circle cx="110.916" cy="11.7763" r="5.50985" transform="rotate(75.2822 110.916 11.7763)" fill="#9333EA"/>
<path d="M17.1486 173.785C-20.6295 247.512 -111.022 276.653 -184.748 238.875C-258.475 201.097 -287.617 110.705 -249.839 36.9783C-212.061 -36.7482 -121.668 -65.8901 -47.9417 -28.112C-12.581 -9.99284 12.5237 20.2295 24.9081 54.9113C27.7905 62.9835 36.1912 68.0554 44.4772 65.8621L47.7257 65.0021C51.6974 63.9508 54.4602 60.5068 56.2816 56.8241C61.5134 46.2457 74.3301 41.9115 84.9084 47.1433C95.4868 52.3751 99.8211 65.1918 94.5892 75.7702C89.3574 86.3485 76.5407 90.6828 65.9624 85.4509C65.0615 85.0054 64.2058 84.5048 63.3976 83.9553C57.6248 80.0305 50.7778 76.0134 44.0297 77.7997C37.0269 79.6533 32.654 86.525 33.2227 93.7465C35.3294 120.499 30.2844 148.15 17.1486 173.785Z" fill="#9333EA"/>
</g>
<defs>
<clipPath id="clip0_87_1403">
<rect width="400" height="320" rx="8" fill="white"/>
</clipPath>
</defs>
</svg>
