<svg width="120" height="52" viewBox="0 0 120 52" fill="none" xmlns="http://www.w3.org/2000/svg">
<g filter="url(#filter0_dd_867_2646)">
<path d="M5 39.8515V4.20792C5 3.21782 5.23746 2.44555 5.71239 1.89109C6.2269 1.29703 6.87993 1 7.67147 1H17.5856C23.8784 1 28.6475 2.58416 31.8928 5.75248C35.1778 8.92079 36.8202 13.9109 36.8202 20.7228C36.8202 35.297 30.6066 42.5842 18.1793 42.5842H8.02767C6.00922 42.5842 5 41.6733 5 39.8515ZM16.3983 12.2871V30.0495C16.3983 30.8812 16.4577 31.4158 16.5764 31.6535C16.6951 31.8515 17.0513 31.9505 17.645 31.9505C19.8217 31.9505 21.4642 31.1386 22.5724 29.5149C23.7201 27.8911 24.294 25.198 24.294 21.4356C24.294 17.6337 23.7003 15.1584 22.513 14.0099C21.3653 12.8614 19.5249 12.2871 16.992 12.2871H16.3983Z" fill="#A855F7"/>
<path d="M54.2804 14.3069C54.2804 13.7525 55.7765 13.4752 58.7685 13.4752C61.7883 13.4752 63.2982 13.7525 63.2982 14.3069V33.3941C63.2982 36.2218 62.287 38.5366 60.2645 40.3386C58.2421 42.1129 55.444 43 51.8702 43C48.324 43 45.429 42.0851 43.1849 40.2554C40.9686 38.398 39.8604 35.903 39.8604 32.7703V14.3485C39.8604 13.7941 41.3564 13.5168 44.3485 13.5168C47.3683 13.5168 48.8781 13.7941 48.8781 14.3485V33.103C48.8781 33.6574 49.169 34.101 49.7508 34.4337C50.3603 34.7663 50.9975 34.9327 51.6624 34.9327C52.3273 34.9327 52.9229 34.7802 53.4493 34.4752C54.0034 34.1703 54.2804 33.7129 54.2804 33.103V14.3069Z" fill="#A855F7"/>
<path d="M66.786 40.6713V15.7208C66.786 15.0277 66.9522 14.4871 67.2846 14.099C67.6448 13.6832 68.1019 13.4752 68.656 13.4752H75.5959C80.0009 13.4752 83.3392 14.5842 85.611 16.802C87.9104 19.0198 89.0601 22.5129 89.0601 27.2812C89.0601 37.4832 84.7106 42.5842 76.0115 42.5842H68.9053C67.4924 42.5842 66.786 41.9465 66.786 40.6713ZM74.7648 21.3762V33.8099C74.7648 34.3921 74.8063 34.7663 74.8894 34.9327C74.9725 35.0713 75.2219 35.1406 75.6374 35.1406C77.1612 35.1406 78.3109 34.5723 79.0866 33.4356C79.89 32.299 80.2917 30.4139 80.2917 27.7802C80.2917 25.1188 79.8762 23.3861 79.0451 22.5822C78.2416 21.7782 76.9534 21.3762 75.1803 21.3762H74.7648Z" fill="#A855F7"/>
<path d="M105.982 14.3069C105.982 13.7525 107.478 13.4752 110.47 13.4752C113.49 13.4752 115 13.7525 115 14.3069V33.3941C115 36.2218 113.989 38.5366 111.966 40.3386C109.944 42.1129 107.146 43 103.572 43C100.026 43 97.1308 42.0851 94.8868 40.2554C92.6704 38.398 91.5623 35.903 91.5623 32.7703V14.3485C91.5623 13.7941 93.0583 13.5168 96.0503 13.5168C99.0701 13.5168 100.58 13.7941 100.58 14.3485V33.103C100.58 33.6574 100.871 34.101 101.453 34.4337C102.062 34.7663 102.699 34.9327 103.364 34.9327C104.029 34.9327 104.625 34.7802 105.151 34.4752C105.705 34.1703 105.982 33.7129 105.982 33.103V14.3069Z" fill="#A855F7"/>
</g>
<defs>
<filter id="filter0_dd_867_2646" x="0" y="0" width="120" height="52" filterUnits="userSpaceOnUse" color-interpolation-filters="sRGB">
<feFlood flood-opacity="0" result="BackgroundImageFix"/>
<feColorMatrix in="SourceAlpha" type="matrix" values="0 0 0 0 0 0 0 0 0 0 0 0 0 0 0 0 0 0 127 0" result="hardAlpha"/>
<feMorphology radius="1" operator="erode" in="SourceAlpha" result="effect1_dropShadow_867_2646"/>
<feOffset dy="4"/>
<feGaussianBlur stdDeviation="3"/>
<feComposite in2="hardAlpha" operator="out"/>
<feColorMatrix type="matrix" values="0 0 0 0 0 0 0 0 0 0 0 0 0 0 0 0 0 0 0.1 0"/>
<feBlend mode="normal" in2="BackgroundImageFix" result="effect1_dropShadow_867_2646"/>
<feColorMatrix in="SourceAlpha" type="matrix" values="0 0 0 0 0 0 0 0 0 0 0 0 0 0 0 0 0 0 127 0" result="hardAlpha"/>
<feMorphology radius="2" operator="erode" in="SourceAlpha" result="effect2_dropShadow_867_2646"/>
<feOffset dy="2"/>
<feGaussianBlur stdDeviation="2"/>
<feComposite in2="hardAlpha" operator="out"/>
<feColorMatrix type="matrix" values="0 0 0 0 0 0 0 0 0 0 0 0 0 0 0 0 0 0 0.1 0"/>
<feBlend mode="normal" in2="effect1_dropShadow_867_2646" result="effect2_dropShadow_867_2646"/>
<feBlend mode="normal" in="SourceGraphic" in2="effect2_dropShadow_867_2646" result="shape"/>
</filter>
</defs>
</svg>
