<svg width="293" height="212" viewBox="0 0 293 212" fill="none" xmlns="http://www.w3.org/2000/svg">
<path d="M330.388 204.998L322.368 200.143L336.934 176.083C339.623 171.64 338.196 165.888 333.769 163.208L141.292 46.6859C128.027 38.6556 110.697 42.9154 102.667 56.1803L15.2747 200.538C7.24436 213.803 11.5042 231.133 24.7691 239.163L233.286 365.396C237.713 368.076 243.481 366.658 246.161 362.231L333.553 217.873C336.243 213.43 334.815 207.678 330.388 204.998Z" fill="#2196F3"/>
<path d="M131.581 62.7257L316.039 174.393L306.329 190.433L121.871 78.7655C117.444 76.0855 116.026 70.3175 118.706 65.8905C121.386 61.4635 127.154 60.0457 131.581 62.7257Z" fill="#FAFAFA"/>
<path d="M303.265 188.578L309.56 110.766C309.969 105.6 306.119 101.099 300.972 100.657L136.018 87.3302L303.265 188.578Z" fill="#022C22"/>
<path d="M113.851 73.9104L271.185 169.158L277.48 91.3453C277.89 86.1794 274.039 81.6784 268.883 81.2528L116.852 68.9541L113.851 73.9104Z" fill="#14532D"/>
</svg>
