<svg width="38" height="39" viewBox="0 0 38 39" fill="none" xmlns="http://www.w3.org/2000/svg">
<path d="M31.6667 27.8671L30.0536 26.9007C29.5618 26.6067 28.9994 26.4513 28.4264 26.4511H25.9988C25.5019 26.4502 25.007 26.514 24.5265 26.6409L17.2123 28.6044C16.8182 28.7132 16.4561 28.915 16.1564 29.193C15.8566 29.471 15.6281 29.8169 15.4901 30.2017L9.05651 26.7211C8.53474 26.4243 7.92416 26.3234 7.33463 26.4366C7.11224 26.4759 6.89658 26.5467 6.69417 26.6469C6.2368 26.866 5.85724 27.2196 5.60627 27.6603C5.38679 28.044 5.27136 28.4784 5.27139 28.9204C5.26805 29.3636 5.38211 29.7997 5.60198 30.1845C5.82185 30.5693 6.13968 30.889 6.52318 31.1111L18.0537 38.0101C18.5545 38.3202 19.1318 38.4844 19.7208 38.4844H28.6445C29.043 38.4846 29.4379 38.4094 29.8084 38.2627L31.6667 37.5289V38.4844H38V25.8177H31.6667V27.8671ZM29.343 37.0847C29.1211 37.1723 28.8848 37.2174 28.6463 37.2177H19.7208C19.3639 37.2174 19.0143 37.1169 18.7118 36.9277L7.16553 30.0207C6.97281 29.9093 6.81303 29.7489 6.70243 29.5558C6.59184 29.3626 6.53439 29.1436 6.53592 28.9211C6.53685 28.6988 6.59532 28.4806 6.70565 28.2877C6.83184 28.069 7.02155 27.8938 7.24961 27.7854C7.34985 27.7366 7.45644 27.7021 7.56627 27.6828C7.64635 27.6679 7.72762 27.6603 7.80908 27.6602C8.02679 27.6596 8.24078 27.7165 8.42975 27.8248L15.4059 31.5944C15.414 31.6331 15.414 31.6712 15.4242 31.7098C15.7242 32.8154 16.727 33.5832 17.8728 33.5845C18.2254 33.5522 18.5745 33.4899 18.9165 33.3983L25.4966 31.6374L25.17 30.4138L18.6113 32.1668C18.3224 32.2333 17.9498 32.3094 17.8728 32.3159C17.5946 32.3164 17.324 32.2253 17.1027 32.0567C16.8814 31.8881 16.7218 31.6513 16.6485 31.3829C16.6281 31.3062 16.6161 31.2277 16.6117 31.1485C16.6117 31.1485 16.6068 30.9951 16.6117 30.9413C16.6353 30.6826 16.7371 30.4371 16.9035 30.2376C17.07 30.0381 17.2932 29.8939 17.5435 29.8243L24.8546 27.8683C25.2278 27.7684 25.6125 27.7178 25.9988 27.7177H28.4264C28.7703 27.7177 29.1077 27.8112 29.4023 27.9877L31.6667 29.3434V36.1663L29.343 37.0847ZM32.9333 27.0844H36.7333V37.2177H32.9333V27.0844ZM26.1213 5.55106L22.724 2.15402C22.196 1.62296 21.568 1.20193 20.8761 0.915335C20.1843 0.628737 19.4425 0.482263 18.6936 0.484398H10.731C10.2396 0.485205 9.75493 0.599625 9.31499 0.818719L7.89553 1.52869C7.61111 1.67182 7.29495 1.74026 6.9768 1.72755L6.33333 1.70499V0.484398H0V14.4177H6.33333V12.5177H7.41016L7.79332 12.7711C8.86559 13.483 10.1138 13.8847 11.4 13.9318V22.0177H38V5.55106H26.1213ZM5.06667 13.1511H1.26667V1.75106H5.06667V13.1511ZM8.49435 11.7171L7.78984 11.2511H6.33333V2.97229L6.93049 2.99366C7.46065 3.01253 7.9871 2.89844 8.46189 2.6618L9.88008 1.95175C10.1443 1.81974 10.4357 1.75103 10.731 1.75106H18.6935C19.2759 1.74938 19.8528 1.86326 20.3909 2.08609C20.929 2.30892 21.4176 2.63629 21.8283 3.04924L24.3301 5.55106H19.1039L17.5667 4.01412L16.6713 4.90942L21.1453 9.38352C21.6422 9.87832 21.6438 10.6823 21.149 11.1797C20.6539 11.6766 19.8499 11.6782 19.3528 11.1834L15.6162 7.44671L15.1728 7.82679C13.9485 8.86649 12.1589 8.89309 10.9039 7.88989L10.5369 7.59238L9.73877 8.57642L10.1098 8.87725C10.4979 9.18748 10.9336 9.43302 11.4 9.6044V12.6647C10.3634 12.6187 9.35884 12.2911 8.49435 11.7172V11.7171ZM17.5035 11.1242L18.4591 12.0802C19.4512 13.0573 21.0438 13.0589 22.0375 12.0833C21.1078 13.5228 21.4746 15.4386 22.8702 16.4328C24.2659 17.427 26.1964 17.1477 27.2531 15.7991C28.3098 14.4502 28.1191 12.5088 26.8195 11.3917C25.5204 10.2748 23.5721 10.3771 22.3974 11.624C22.6106 11.2891 22.7407 10.9081 22.7768 10.5127C22.8129 10.1173 22.7539 9.71904 22.6049 9.35107H31.086C31.3583 10.9446 32.6065 12.1928 34.2 12.4652V15.1036C32.6065 15.376 31.3583 16.6242 31.0859 18.2177H18.3141C18.0417 16.6242 16.7935 15.376 15.2 15.1036V12.4652C16.1052 12.3127 16.924 11.836 17.5036 11.1242H17.5035ZM22.8 13.7844C22.8 12.7351 23.6507 11.8844 24.7 11.8844C25.7493 11.8844 26.6 12.7351 26.6 13.7844C26.6 14.8337 25.7493 15.6844 24.7 15.6844C23.6507 15.6844 22.8 14.8337 22.8 13.7844ZM36.7333 20.7511H12.6667V9.86961C13.6707 9.94498 14.6718 9.6892 15.5167 9.14143L16.5971 10.2219C16.3628 10.5403 16.057 10.7993 15.7043 10.978C15.3517 11.1568 14.962 11.2503 14.5667 11.2511H13.9333V16.3177H14.5667C15.9657 16.3177 17.1 17.452 17.1 18.8511V19.4844H32.3V18.8511C32.3 17.452 33.4343 16.3177 34.8333 16.3177H35.4667V11.2511H34.8333C33.4343 11.2511 32.3 10.1168 32.3 8.71773V8.0844H21.6372L20.3705 6.81773H36.7333V20.7511Z" fill="#A855F7"/>
</svg>
