<svg width="38" height="29" viewBox="0 0 38 29" fill="none" xmlns="http://www.w3.org/2000/svg">
<path d="M7.125 19.0977C7.45292 19.0977 7.71875 18.8318 7.71875 18.5039C7.71875 18.176 7.45292 17.9102 7.125 17.9102C6.79708 17.9102 6.53125 18.176 6.53125 18.5039C6.53125 18.8318 6.79708 19.0977 7.125 19.0977Z" fill="#A855F7"/>
<path d="M19 11.9727C15.3987 11.9727 12.4688 14.9026 12.4688 18.5039C12.4688 22.1052 15.3987 25.0352 19 25.0352C22.6013 25.0352 25.5312 22.1052 25.5312 18.5039C25.5312 14.9026 22.6013 11.9727 19 11.9727ZM19.0293 17.9103C20.3254 17.926 21.375 18.9854 21.375 20.2852C21.375 21.3506 20.6698 22.2544 19.7017 22.5544C19.6383 22.5741 19.5938 22.6308 19.5938 22.6972V23.2336C19.5938 23.5498 19.3551 23.8259 19.0396 23.8464C18.9584 23.8518 18.8771 23.8405 18.8005 23.8132C18.7239 23.7858 18.6538 23.7431 18.5944 23.6875C18.535 23.632 18.4877 23.5648 18.4553 23.4902C18.423 23.4157 18.4063 23.3352 18.4062 23.2539V22.6996C18.4062 22.6343 18.3649 22.5749 18.3025 22.5557C17.3457 22.2612 16.6448 21.3773 16.6254 20.3298C16.6193 19.9994 16.8623 19.7062 17.1923 19.692C17.2724 19.6884 17.3524 19.7011 17.4275 19.7294C17.5026 19.7576 17.5711 19.8007 17.6291 19.8561C17.687 19.9115 17.7332 19.9781 17.7647 20.0519C17.7962 20.1256 17.8124 20.205 17.8124 20.2852C17.8124 20.9588 18.3762 21.5032 19.0567 21.4713C19.6608 21.443 20.1579 20.946 20.1861 20.3419C20.2179 19.6615 19.6735 19.0977 18.9999 19.0977C17.6903 19.0977 16.6249 18.0322 16.6249 16.7227C16.6249 15.6572 17.3302 14.7534 18.2983 14.4534C18.3616 14.4337 18.4062 14.377 18.4062 14.3106V13.7742C18.4062 13.458 18.6448 13.1819 18.9604 13.1614C19.0415 13.156 19.1229 13.1673 19.1994 13.1947C19.276 13.222 19.3462 13.2647 19.4055 13.3203C19.4649 13.3758 19.5122 13.443 19.5446 13.5176C19.577 13.5922 19.5937 13.6726 19.5937 13.7539V14.3082C19.5937 14.3736 19.635 14.4329 19.6974 14.4522C20.6542 14.7467 21.3551 15.6305 21.3746 16.6781C21.3806 17.0084 21.1376 17.3016 20.8076 17.3158C20.7275 17.3194 20.6475 17.3067 20.5724 17.2785C20.4974 17.2503 20.4288 17.2071 20.3708 17.1517C20.3129 17.0963 20.2668 17.0297 20.2353 16.9559C20.2037 16.8822 20.1875 16.8028 20.1875 16.7227C20.1875 16.0679 19.6548 15.5352 19 15.5352C18.341 15.5352 17.8056 16.0748 17.8126 16.7354C17.8195 17.3908 18.3739 17.9024 19.0293 17.9103Z" fill="#A855F7"/>
<path d="M36.2188 8.41016H1.78125C0.799113 8.41016 0 9.20927 0 10.1914V26.8164C0 27.7985 0.799113 28.5977 1.78125 28.5977H36.2188C37.2009 28.5977 38 27.7985 38 26.8164V10.1914C38 9.2092 37.2009 8.41016 36.2188 8.41016ZM12.4688 26.2227H4.75C4.42373 26.2227 4.15506 25.9595 4.15625 25.6332C4.15863 24.975 3.62262 24.439 2.96445 24.4414C2.63818 24.4426 2.375 24.1739 2.375 23.8477V13.1602C2.375 12.8339 2.63818 12.5652 2.96445 12.5664C3.62262 12.5688 4.15863 12.0328 4.15625 11.3746C4.15506 11.0483 4.42373 10.7852 4.75 10.7852H12.4484C12.7647 10.7852 13.0408 11.0238 13.0612 11.3393C13.0666 11.4205 13.0553 11.5018 13.028 11.5784C13.0007 11.655 12.9579 11.7251 12.9024 11.7845C12.8468 11.8439 12.7797 11.8912 12.7051 11.9236C12.6305 11.956 12.5501 11.9727 12.4688 11.9727H5.4343C5.33841 11.9727 5.2538 12.0343 5.22359 12.1253C4.98787 12.8356 4.42537 13.3981 3.71517 13.6337C3.67079 13.6483 3.63215 13.6766 3.60474 13.7144C3.57733 13.7522 3.56255 13.7977 3.5625 13.8445V23.1633C3.5625 23.2592 3.6241 23.3438 3.71517 23.374C4.42544 23.6097 4.98795 24.1722 5.22359 24.8824C5.2382 24.9268 5.26642 24.9654 5.30425 24.9928C5.34208 25.0202 5.38758 25.035 5.4343 25.0351H12.4483C12.7646 25.0351 13.0407 25.2737 13.0612 25.5893C13.0666 25.6704 13.0553 25.7518 13.028 25.8284C13.0007 25.905 12.9579 25.9751 12.9024 26.0345C12.8468 26.0939 12.7797 26.1412 12.7051 26.1736C12.6305 26.206 12.5501 26.2227 12.4688 26.2227ZM8.90625 18.5039C8.90625 19.486 8.10714 20.2852 7.125 20.2852C6.14286 20.2852 5.34375 19.486 5.34375 18.5039C5.34375 17.5218 6.14286 16.7227 7.125 16.7227C8.10714 16.7227 8.90625 17.5217 8.90625 18.5039ZM19 26.2227C14.7439 26.2227 11.2812 22.7601 11.2812 18.5039C11.2812 14.2478 14.7439 10.7852 19 10.7852C23.2561 10.7852 26.7188 14.2478 26.7188 18.5039C26.7188 22.7601 23.2561 26.2227 19 26.2227ZM35.625 23.8477C35.625 24.1739 35.3618 24.4426 35.0356 24.4414C34.3774 24.439 33.8414 24.975 33.8438 25.6332C33.8449 25.9595 33.5763 26.2227 33.25 26.2227H25.5516C25.2353 26.2227 24.9592 25.984 24.9388 25.6685C24.9334 25.5873 24.9447 25.506 24.972 25.4294C24.9993 25.3528 25.0421 25.2827 25.0976 25.2233C25.1532 25.1639 25.2203 25.1166 25.2949 25.0842C25.3695 25.0519 25.4499 25.0352 25.5312 25.0352H32.5657C32.6616 25.0352 32.7462 24.9736 32.7764 24.8825C33.0121 24.1722 33.5746 23.6097 34.2848 23.3741C34.3292 23.3595 34.3678 23.3312 34.3952 23.2934C34.4227 23.2556 34.4374 23.2101 34.4375 23.1634V13.8445C34.4375 13.7486 34.3759 13.664 34.2848 13.6337C33.5746 13.398 33.0121 12.8355 32.7764 12.1253C32.7618 12.081 32.7336 12.0423 32.6957 12.0149C32.6579 11.9875 32.6124 11.9727 32.5657 11.9727H25.5517C25.2354 11.9727 24.9593 11.734 24.9388 11.4185C24.9334 11.3373 24.9447 11.256 24.9721 11.1794C24.9994 11.1028 25.0422 11.0327 25.0977 10.9733C25.1533 10.9139 25.2204 10.8666 25.295 10.8342C25.3696 10.8019 25.45 10.7852 25.5313 10.7852H33.2501C33.5763 10.7852 33.845 11.0483 33.8438 11.3746C33.8414 12.0328 34.3775 12.5688 35.0356 12.5664C35.3619 12.5652 35.6251 12.8339 35.6251 13.1602V23.8477H35.625ZM29.0938 18.5039C29.0938 17.5218 29.8929 16.7227 30.875 16.7227C31.8571 16.7227 32.6562 17.5218 32.6562 18.5039C32.6562 19.486 31.8571 20.2852 30.875 20.2852C29.8929 20.2852 29.0938 19.486 29.0938 18.5039Z" fill="#A855F7"/>
<path d="M30.875 19.0977C31.2029 19.0977 31.4688 18.8318 31.4688 18.5039C31.4688 18.176 31.2029 17.9102 30.875 17.9102C30.5471 17.9102 30.2812 18.176 30.2812 18.5039C30.2812 18.8318 30.5471 19.0977 30.875 19.0977Z" fill="#A855F7"/>
<path d="M35.7695 5.37382C35.6472 4.3922 34.7477 3.69395 33.7552 3.83081L11.0735 7.07491C10.9823 7.08797 10.9918 7.22261 11.084 7.22261H35.8323C35.8533 7.22261 35.8741 7.21814 35.8933 7.20949C35.9125 7.20083 35.9296 7.1882 35.9436 7.17242C35.9575 7.15664 35.9679 7.13808 35.9741 7.11797C35.9803 7.09785 35.9822 7.07665 35.9796 7.05576L35.7695 5.37382ZM32.4441 2.81869C32.4646 2.81575 32.4843 2.80852 32.5019 2.79747C32.5194 2.78642 32.5345 2.7718 32.546 2.75455C32.5575 2.73731 32.5653 2.71784 32.5688 2.69739C32.5723 2.67695 32.5715 2.65599 32.5664 2.63589L32.3376 1.72003C32.0971 0.75511 31.1134 0.1719 30.1407 0.433818L11.476 5.66832C11.3868 5.69333 11.4144 5.8264 11.5061 5.81327C16.1964 5.14255 28.9906 3.31313 32.4441 2.81869Z" fill="#A855F7"/>
</svg>
