<svg width="38" height="37" viewBox="0 0 38 37" fill="none" xmlns="http://www.w3.org/2000/svg">
<path d="M29.9716 10.6525V11.1394C29.9716 11.2969 30.0342 11.4479 30.1455 11.5592C30.2569 11.6706 30.4079 11.7331 30.5654 11.7331C30.7229 11.7331 30.8739 11.6706 30.9852 11.5592C31.0966 11.4479 31.1591 11.2969 31.1591 11.1394V10.6537C32.1543 10.4459 32.8121 9.73457 32.8121 8.77507C32.8139 8.07445 32.5331 6.85964 30.6539 6.5972C29.7217 6.43036 29.5703 6.05748 29.6237 5.54032C29.7009 5.04454 30.2501 4.80882 30.731 4.84742C30.9448 4.86226 31.4435 4.95192 31.4513 5.4572C31.4554 5.78495 31.7475 6.04086 32.0527 6.04264C32.1308 6.04163 32.2078 6.02525 32.2795 5.99444C32.3512 5.96363 32.4161 5.91899 32.4705 5.86308C32.525 5.80716 32.5678 5.74107 32.5967 5.66857C32.6256 5.59607 32.6399 5.5186 32.6388 5.44057C32.6269 4.56301 32.0444 3.90336 31.1591 3.71395V3.28467C31.1591 3.1272 31.0966 2.97617 30.9852 2.86482C30.8739 2.75347 30.7229 2.69092 30.5654 2.69092C30.4079 2.69092 30.2569 2.75347 30.1455 2.86482C30.0342 2.97617 29.9716 3.1272 29.9716 3.28467V3.75254C29.2389 3.95679 28.584 4.49829 28.4463 5.38654C28.3691 6.12754 28.5247 7.42192 30.4668 7.76986C31.4863 7.91236 31.6258 8.3357 31.6246 8.77329C31.6246 9.50242 30.7186 9.51489 30.544 9.53448C29.9081 9.53448 29.5168 9.18417 29.4717 8.57261C29.4676 8.4936 29.4478 8.41621 29.4134 8.34497C29.379 8.27373 29.3308 8.21008 29.2714 8.15776C29.2121 8.10544 29.1429 8.06551 29.0679 8.0403C28.9929 8.0151 28.9137 8.00513 28.8348 8.01098C28.7559 8.01684 28.679 8.0384 28.6085 8.0744C28.5381 8.1104 28.4755 8.16011 28.4246 8.22062C28.3736 8.28112 28.3353 8.3512 28.3118 8.42674C28.2883 8.50227 28.2801 8.58174 28.2878 8.66048C28.3649 9.69657 29.0199 10.4394 29.9716 10.6531V10.6525ZM8.88223 4.2032H13.9588C14.1163 4.2032 14.2673 4.14064 14.3786 4.02929C14.49 3.91794 14.5525 3.76692 14.5525 3.60945C14.5525 3.45198 14.49 3.30095 14.3786 3.1896C14.2673 3.07825 14.1163 3.0157 13.9588 3.0157H8.88223C8.72475 3.0157 8.57373 3.07825 8.46238 3.1896C8.35103 3.30095 8.28848 3.45198 8.28848 3.60945C8.28848 3.76692 8.35103 3.91794 8.46238 4.02929C8.57373 4.14064 8.72475 4.2032 8.88223 4.2032ZM13.2273 32.6848H9.61195C9.45447 32.6848 9.30345 32.7473 9.1921 32.8587C9.08075 32.97 9.0182 33.1211 9.0182 33.2785C9.0182 33.436 9.08075 33.587 9.1921 33.6984C9.30345 33.8097 9.45447 33.8723 9.61195 33.8723H13.2273C13.3848 33.8723 13.5358 33.8097 13.6471 33.6984C13.7585 33.587 13.821 33.436 13.821 33.2785C13.821 33.1211 13.7585 32.97 13.6471 32.8587C13.5358 32.7473 13.3848 32.6848 13.2273 32.6848ZM29.7828 22.6469C29.6346 22.5905 29.4702 22.5947 29.3251 22.6585C29.1799 22.7222 29.0656 22.8404 29.0068 22.9877C28.9482 23.1339 28.9501 23.2974 29.0121 23.4422C29.074 23.587 29.191 23.7013 29.3372 23.7598C29.4834 23.8184 29.6469 23.8165 29.7917 23.7545C29.9365 23.6926 30.0508 23.5756 30.1094 23.4294L30.1177 23.4086C30.1462 23.3367 30.1602 23.2598 30.1587 23.1824C30.1573 23.105 30.1405 23.0287 30.1094 22.9578C30.0782 22.8869 30.0333 22.823 29.9773 22.7696C29.9212 22.7162 29.8551 22.6745 29.7828 22.6469ZM11.4205 11.441C7.46732 11.441 4.25098 14.6568 4.25098 18.6088C4.25098 22.5619 7.46732 25.7783 11.4205 25.7783C15.3731 25.7783 18.5883 22.5619 18.5883 18.6088C18.5883 14.6568 15.3731 11.441 11.4205 11.441ZM11.4205 24.5908C8.12223 24.5908 5.43848 21.907 5.43848 18.6088C5.43848 15.3111 8.12223 12.6285 11.4205 12.6285C14.7182 12.6285 17.4008 15.3111 17.4008 18.6088C17.4008 21.9076 14.7182 24.5908 11.4205 24.5908Z" fill="#A855F7"/>
<path d="M35.6048 15.1748H22.2478V4.70103C22.2466 3.63942 21.8243 2.62165 21.0736 1.87098C20.3229 1.12031 19.3052 0.698034 18.2436 0.696777H4.598C3.53639 0.698034 2.51863 1.12031 1.76796 1.87098C1.01729 2.62165 0.595007 3.63942 0.59375 4.70103V32.517C0.595007 33.5786 1.01729 34.5964 1.76796 35.3471C2.51863 36.0977 3.53639 36.52 4.598 36.5213H18.2436C19.3053 36.5202 20.3232 36.098 21.074 35.3473C21.8248 34.5966 22.2471 33.5787 22.2484 32.517V31.2405H35.6048C36.0822 31.2398 36.5398 31.05 36.8775 30.7126C37.2152 30.3751 37.4053 29.9176 37.4062 29.4402V16.9762C37.4058 16.4986 37.2158 16.0407 36.8781 15.7029C36.5404 15.3652 36.0824 15.1753 35.6048 15.1748ZM1.78125 6.92997H21.0603V30.1456H1.78125V6.92997ZM22.2478 21.459C22.626 21.1734 23.0872 21.0191 23.5612 21.0197C24.1413 21.0206 24.6974 21.2516 25.1075 21.662C25.5175 22.0724 25.7481 22.6287 25.7486 23.2088C25.7479 23.7887 25.5173 24.3447 25.1072 24.7548C24.6971 25.1649 24.1411 25.3956 23.5612 25.3962C23.0838 25.3962 22.626 25.2418 22.2484 24.9568L22.2478 21.459ZM22.2478 26.3112C22.6628 26.4897 23.1095 26.5826 23.5612 26.5843C24.4561 26.5833 25.314 26.2274 25.9468 25.5945C26.5795 24.9617 26.9353 24.1037 26.9361 23.2088C26.9354 22.3137 26.5797 21.4554 25.947 20.8223C25.3143 20.1891 24.4563 19.8328 23.5612 19.8316C23.1097 19.8333 22.6632 19.9262 22.2484 20.1047V19.0365H31.0044C31.1217 19.6032 31.4021 20.1231 31.8113 20.5322C32.2204 20.9414 32.7404 21.2219 33.307 21.3391V25.0756C32.7404 25.1928 32.2204 25.4733 31.8113 25.8824C31.4021 26.2916 31.1217 26.8115 31.0044 27.3781H22.2484L22.2478 26.3112ZM4.59859 1.88428H18.2442C18.991 1.88506 19.7071 2.18206 20.2352 2.71012C20.7634 3.23817 21.0606 3.95417 21.0615 4.70103V5.74247H1.78125V4.70103C1.78219 3.95427 2.07926 3.23836 2.6073 2.71033C3.13534 2.18229 3.85183 1.88522 4.59859 1.88428ZM18.2448 35.3338H4.598C3.85124 35.3328 3.13534 35.0358 2.6073 34.5077C2.07926 33.9797 1.78219 33.2638 1.78125 32.517V31.3331H21.0603V32.517C21.0594 33.2637 20.7624 33.9795 20.2345 34.5075C19.7066 35.0355 18.9908 35.3327 18.2442 35.3338H18.2448ZM36.2188 29.439C36.2188 29.7775 35.9432 30.053 35.6048 30.053H22.2478V28.5662H31.5376C31.6951 28.5662 31.8461 28.5037 31.9575 28.3923C32.0688 28.281 32.1314 28.1299 32.1314 27.9725C32.1317 27.5033 32.3182 27.0534 32.65 26.7217C32.9817 26.3899 33.4316 26.2034 33.9007 26.2031C34.0582 26.2031 34.2092 26.1405 34.3206 26.0292C34.4319 25.9178 34.4945 25.7668 34.4945 25.6093V20.8059C34.4945 20.6484 34.4319 20.4974 34.3206 20.3861C34.2092 20.2747 34.0582 20.2122 33.9007 20.2122C33.4318 20.2117 32.9822 20.0252 32.6506 19.6936C32.3189 19.362 32.1324 18.9123 32.132 18.4434C32.132 18.2859 32.0694 18.1349 31.9581 18.0235C31.8467 17.9122 31.6957 17.8496 31.5382 17.8496H22.2484V16.3623H35.6048C35.9432 16.3623 36.2188 16.6378 36.2188 16.9762V29.439Z" fill="#A855F7"/>
<path d="M30.5148 13.9836C34.2471 13.9836 37.2835 10.9477 37.2835 7.21661C37.2835 3.4837 34.2471 0.447266 30.5148 0.447266C26.7825 0.447266 23.746 3.4837 23.746 7.21602C23.746 10.9477 26.7825 13.9836 30.5148 13.9836ZM30.5148 1.63477C33.5928 1.63477 36.096 4.13861 36.096 7.21661C36.096 10.2934 33.5928 12.7961 30.5148 12.7961C27.4368 12.7961 24.9335 10.2934 24.9335 7.21661C24.9335 4.13861 27.4368 1.63477 30.5148 1.63477ZM13.8162 14.9924C13.6046 15.0041 13.3976 15.0578 13.207 15.1502C13.0164 15.2427 12.846 15.3721 12.7058 15.5309L10.0061 18.5661L9.55244 18.1642C9.38906 18.0175 9.19817 17.9048 8.99085 17.8325C8.78352 17.7602 8.56391 17.7299 8.34475 17.7432C8.12439 17.7551 7.90858 17.8106 7.70983 17.9065C7.51108 18.0024 7.33335 18.1368 7.18694 18.3019C6.89232 18.6342 6.74149 19.0698 6.76754 19.5131C6.79358 19.9564 6.99437 20.3713 7.32588 20.6668L9.12079 22.2634C9.35175 22.4683 9.70207 22.7337 10.1272 22.7337C10.1509 22.7337 10.1753 22.7325 10.1996 22.7307C10.7013 22.6951 11.019 22.3204 11.3551 21.9238C11.4281 21.8383 11.5065 21.7457 11.5926 21.6477L15.1224 17.6791C15.4067 17.3582 15.5521 16.9376 15.5267 16.5096C15.5013 16.0816 15.3073 15.6812 14.987 15.3961C14.8283 15.2546 14.6431 15.1461 14.4421 15.0768C14.2411 15.0075 14.0283 14.9788 13.8162 14.9924ZM14.2348 16.89L10.7061 20.858C10.6123 20.9631 10.528 21.0635 10.449 21.1561C10.3332 21.2926 10.1937 21.4571 10.11 21.5278C10.0382 21.4839 9.97099 21.4329 9.90929 21.3758L8.11497 19.7798C8.01963 19.693 7.96198 19.5724 7.95432 19.4437C7.94667 19.315 7.98962 19.1885 8.074 19.091C8.11996 19.0392 8.17649 18.9978 8.23978 18.9696C8.30308 18.9415 8.37167 18.9272 8.44094 18.9277C8.55969 18.9277 8.6725 18.9705 8.76335 19.0512L9.66229 19.848C9.78 19.9523 9.93425 20.0055 10.0912 19.9962C10.2481 19.9868 10.395 19.9156 10.4995 19.7982L13.5947 16.3188C13.6322 16.2768 13.6777 16.2426 13.7284 16.2182C13.7792 16.1938 13.8343 16.1796 13.8905 16.1764C13.9467 16.1733 14.003 16.1813 14.0562 16.1999C14.1094 16.2185 14.1583 16.2474 14.2003 16.285C14.2423 16.3225 14.2765 16.3679 14.3009 16.4187C14.3253 16.4695 14.3395 16.5245 14.3427 16.5808C14.3458 16.637 14.3378 16.6933 14.3192 16.7465C14.3006 16.7996 14.2717 16.8486 14.2342 16.8906L14.2348 16.89Z" fill="#A855F7"/>
</svg>
