<svg width="97" height="98" viewBox="0 0 97 98" fill="none" xmlns="http://www.w3.org/2000/svg">
<path fill-rule="evenodd" clip-rule="evenodd" d="M6.92249 0.757812H90.4108C93.9848 0.757812 96.9088 3.68184 96.9088 7.25586V90.7441C96.9088 94.318 93.9848 97.2422 90.4108 97.2422H6.92249C3.34846 97.2422 0.424438 94.3182 0.424438 90.7441V7.25586C0.424438 3.68184 3.34846 0.757812 6.92249 0.757812Z" fill="#4294FF"/>
<path fill-rule="evenodd" clip-rule="evenodd" d="M9.15566 23.5879H88.1775C89.5854 23.5879 90.7375 24.7396 90.7375 26.1477V88.5109C90.7375 89.9188 89.5855 91.0707 88.1775 91.0707H9.15566C7.74766 91.0707 6.5957 89.9188 6.5957 88.5109V26.1477C6.5957 24.7396 7.74766 23.5879 9.15566 23.5879Z" fill="#E6F8FF"/>
<path fill-rule="evenodd" clip-rule="evenodd" d="M0.424438 7.25586V17.4164H96.9088V7.25586C96.9088 3.68184 93.9848 0.757812 90.411 0.757812H6.92249C3.34846 0.757812 0.424438 3.68184 0.424438 7.25586Z" fill="#004960"/>
<path d="M9.45789 11.4357C10.755 11.4357 11.8065 10.3842 11.8065 9.08711C11.8065 7.79 10.755 6.73848 9.45789 6.73848C8.16077 6.73848 7.10925 7.79 7.10925 9.08711C7.10925 10.3842 8.16077 11.4357 9.45789 11.4357Z" fill="#EB3B48"/>
<path d="M19.7208 10.7488C20.638 9.83163 20.638 8.34455 19.7208 7.42736C18.8037 6.51016 17.3166 6.51016 16.3994 7.42736C15.4822 8.34455 15.4822 9.83163 16.3994 10.7488C17.3166 11.666 18.8037 11.666 19.7208 10.7488Z" fill="#FFE600"/>
<path d="M27.2058 11.3629C28.468 11.0636 29.2485 9.79781 28.9492 8.53569C28.6499 7.27358 27.3842 6.49305 26.1221 6.79233C24.8599 7.09161 24.0794 8.35738 24.3787 9.61949C24.678 10.8816 25.9437 11.6621 27.2058 11.3629Z" fill="#22C269"/>
<path fill-rule="evenodd" clip-rule="evenodd" d="M87.4107 7.52481C87.8251 7.52481 88.2226 7.68943 88.5156 7.98246C88.8086 8.27548 88.9732 8.67291 88.9732 9.08731C88.9732 9.50171 88.8086 9.89914 88.5156 10.1922C88.2226 10.4852 87.8251 10.6498 87.4107 10.6498H59.0723C58.6579 10.6498 58.2604 10.4852 57.9674 10.1922C57.6744 9.89914 57.5098 9.50171 57.5098 9.08731C57.5098 8.67291 57.6744 8.27548 57.9674 7.98246C58.2604 7.68943 58.6579 7.52481 59.0723 7.52481H87.4107Z" fill="#007BA1"/>
<path fill-rule="evenodd" clip-rule="evenodd" d="M52.3319 81.6957C52.7463 81.6957 53.1437 81.8603 53.4367 82.1534C53.7298 82.4464 53.8944 82.8438 53.8944 83.2582C53.8944 83.6726 53.7298 84.07 53.4367 84.3631C53.1437 84.6561 52.7463 84.8207 52.3319 84.8207H14.4084C13.994 84.8207 13.5966 84.6561 13.3036 84.3631C13.0106 84.07 12.8459 83.6726 12.8459 83.2582C12.8459 82.8438 13.0106 82.4464 13.3036 82.1534C13.5966 81.8603 13.994 81.6957 14.4084 81.6957H52.3319ZM82.9251 29.8379C83.3395 29.8379 83.7369 30.0025 84.0299 30.2955C84.3229 30.5886 84.4876 30.986 84.4876 31.4004C84.4876 31.8148 84.3229 32.2122 84.0299 32.5052C83.7369 32.7983 83.3395 32.9629 82.9251 32.9629H60.1444C59.73 32.9629 59.3326 32.7983 59.0395 32.5052C58.7465 32.2122 58.5819 31.8148 58.5819 31.4004C58.5819 30.986 58.7465 30.5886 59.0395 30.2955C59.3326 30.0025 59.73 29.8379 60.1444 29.8379H82.9251ZM82.9182 40.2096C83.3326 40.2096 83.73 40.3742 84.0231 40.6672C84.3161 40.9602 84.4807 41.3577 84.4807 41.7721C84.4807 42.1865 84.3161 42.5839 84.0231 42.8769C83.73 43.17 83.3326 43.3346 82.9182 43.3346H60.6194C60.205 43.3346 59.8076 43.17 59.5145 42.8769C59.2215 42.5839 59.0569 42.1865 59.0569 41.7721C59.0569 41.3577 59.2215 40.9602 59.5145 40.6672C59.8076 40.3742 60.205 40.2096 60.6194 40.2096H82.9182ZM82.9118 50.5811C83.3262 50.5811 83.7236 50.7457 84.0166 51.0387C84.3097 51.3317 84.4743 51.7292 84.4743 52.1436C84.4743 52.558 84.3097 52.9554 84.0166 53.2484C83.7236 53.5414 83.3262 53.7061 82.9118 53.7061H60.1444C59.73 53.7061 59.3326 53.5414 59.0395 53.2484C58.7465 52.9554 58.5819 52.558 58.5819 52.1436C58.5819 51.7292 58.7465 51.3317 59.0395 51.0387C59.3326 50.7457 59.73 50.5811 60.1444 50.5811H82.9118ZM82.9051 60.9525C83.3195 60.9525 83.717 61.1172 84.01 61.4102C84.303 61.7032 84.4676 62.1006 84.4676 62.515C84.4676 62.9294 84.303 63.3269 84.01 63.6199C83.717 63.9129 83.3195 64.0775 82.9051 64.0775H60.1444C59.73 64.0775 59.3326 63.9129 59.0395 63.6199C58.7465 63.3269 58.5819 62.9294 58.5819 62.515C58.5819 62.1006 58.7465 61.7032 59.0395 61.4102C59.3326 61.1172 59.73 60.9525 60.1444 60.9525H82.9051ZM52.3319 71.3242C52.7463 71.3242 53.1437 71.4888 53.4367 71.7819C53.7298 72.0749 53.8944 72.4723 53.8944 72.8867C53.8944 73.3011 53.7298 73.6985 53.4367 73.9916C53.1437 74.2846 52.7463 74.4492 52.3319 74.4492H14.4151C14.0007 74.4492 13.6033 74.2846 13.3102 73.9916C13.0172 73.6985 12.8526 73.3011 12.8526 72.8867C12.8526 72.4723 13.0172 72.0749 13.3102 71.7819C13.6033 71.4888 14.0007 71.3242 14.4151 71.3242H52.3319Z" fill="#A7A7A7"/>
<path fill-rule="evenodd" clip-rule="evenodd" d="M60.5217 71.3242H82.5147C83.5889 71.3242 84.4678 72.2031 84.4678 73.2773V82.8678C84.4678 83.942 83.5889 84.8209 82.5147 84.8209H60.5217C59.4475 84.8209 58.5686 83.942 58.5686 82.8678V73.2773C58.5686 72.2029 59.4475 71.3242 60.5217 71.3242Z" fill="#EB3B48"/>
<path fill-rule="evenodd" clip-rule="evenodd" d="M14.4796 29.8379H52.2608C53.4538 29.8379 54.4302 30.8141 54.4302 32.007V59.0338C54.4302 60.2269 53.454 61.2031 52.2608 61.2031H14.4796C13.2866 61.2031 12.3104 60.2269 12.3104 59.0338V32.0072C12.3104 30.8141 13.2864 29.8379 14.4796 29.8379Z" fill="#4294FF"/>
<path fill-rule="evenodd" clip-rule="evenodd" d="M54.43 59.034V54.2855L44.6122 46.0936C44.0216 45.6008 43.2139 45.5494 42.5657 45.9633L34.3366 51.218L29.3887 44.9035C29.1309 44.5716 28.7609 44.345 28.348 44.2663C27.9351 44.1876 27.5077 44.262 27.1458 44.4758L12.3104 53.1523V59.034C12.3104 60.2271 13.2866 61.2031 14.4796 61.2031H52.2608C53.454 61.2033 54.43 60.2271 54.43 59.034Z" fill="#545C66"/>
<path fill-rule="evenodd" clip-rule="evenodd" d="M38.2301 37.1734C39.5481 37.1734 40.6163 38.2418 40.6163 39.5596C40.6163 40.8773 39.5479 41.9457 38.2301 41.9457C36.9124 41.9457 35.844 40.8773 35.844 39.5596C35.844 38.2418 36.9124 37.1734 38.2301 37.1734Z" fill="#E2E3E3"/>
</svg>
