<svg width="440" height="250" viewBox="0 0 440 250" fill="none" xmlns="http://www.w3.org/2000/svg">
<g clip-path="url(#clip0_101_1405)">
<g clip-path="url(#clip1_101_1405)">
<path d="M477.388 242.998L469.368 238.143L483.934 214.083C486.623 209.64 485.196 203.888 480.769 201.208L288.292 84.6859C275.027 76.6556 257.697 80.9154 249.667 94.1803L162.275 238.538C154.244 251.803 158.504 269.133 171.769 277.163L380.286 403.396C384.713 406.076 390.481 404.658 393.161 400.231L480.553 255.873C483.243 251.43 481.815 245.678 477.388 242.998Z" fill="#2196F3"/>
<path d="M278.581 100.726L463.039 212.393L453.329 228.433L268.871 116.765C264.444 114.085 263.026 108.317 265.706 103.89C268.386 99.4635 274.154 98.0457 278.581 100.726Z" fill="#FAFAFA"/>
<path d="M450.265 226.578L456.559 148.766C456.969 143.6 453.118 139.099 447.972 138.657L283.018 125.33L450.265 226.578Z" fill="#A855F7"/>
<path d="M260.851 111.91L418.185 207.158L424.48 129.345C424.889 124.179 421.039 119.678 415.883 119.253L263.851 106.954L260.851 111.91Z" fill="#C084FC"/>
</g>
</g>
<defs>
<clipPath id="clip0_101_1405">
<rect width="440" height="250" rx="8" fill="white"/>
</clipPath>
<clipPath id="clip1_101_1405">
<rect width="300" height="300" fill="white" transform="translate(293.363 22) rotate(31.19)"/>
</clipPath>
</defs>
</svg>
