<svg width="30" height="29" viewBox="0 0 30 29" fill="none" xmlns="http://www.w3.org/2000/svg">
<path d="M21.5245 3.87098C19.4085 3.87314 17.3799 4.71466 15.8836 6.21087C14.3874 7.70708 13.5459 9.73576 13.5437 11.8517C13.5437 16.0926 20.8172 26.6643 21.1237 27.1126C21.1687 27.1773 21.2286 27.2302 21.2985 27.2668C21.3684 27.3033 21.446 27.3224 21.5249 27.3224C21.6037 27.3224 21.6814 27.3033 21.7512 27.2668C21.8211 27.2302 21.8811 27.1773 21.926 27.1126C22.2355 26.6673 29.5038 16.0926 29.5038 11.8517C29.5018 9.73595 28.6605 7.70739 27.1646 6.21118C25.6687 4.71496 23.6403 3.87333 21.5245 3.87098ZM24.4932 10.0898C24.4932 10.6769 24.3191 11.2509 23.9929 11.7391C23.6667 12.2273 23.2031 12.6078 22.6606 12.8325C22.1181 13.0572 21.5212 13.116 20.9453 13.0015C20.3694 12.8869 19.8405 12.6042 19.4253 12.189C19.0101 11.7738 18.7273 11.2448 18.6128 10.6689C18.4982 10.0931 18.557 9.49614 18.7817 8.95367C19.0064 8.41121 19.3869 7.94755 19.8751 7.62134C20.3633 7.29513 20.9373 7.12102 21.5245 7.12102C21.9144 7.12121 22.3004 7.19819 22.6605 7.34757C23.0206 7.49694 23.3477 7.71578 23.6233 7.99159C23.8988 8.2674 24.1173 8.59479 24.2663 8.95505C24.4154 9.31531 24.492 9.70139 24.4918 10.0912L24.4932 10.0898ZM17.2859 28.113C13.7234 28.113 3.92648 27.8696 1.27094 25.2608C0.756601 24.7561 0.496094 24.1795 0.496094 23.5456C0.496094 21.2448 3.54723 20.5554 6.49816 19.8904C8.81082 19.3708 11.4322 18.7771 11.4322 17.6C11.4322 16.8162 9.01047 16.0258 6.83734 15.8061C6.74178 15.7963 6.64907 15.7679 6.56451 15.7223C6.47995 15.6767 6.40519 15.6149 6.34451 15.5405C6.28383 15.466 6.23841 15.3803 6.21084 15.2883C6.18327 15.1963 6.1741 15.0997 6.18385 15.0042C6.19359 14.9086 6.22207 14.8159 6.26764 14.7313C6.31322 14.6468 6.375 14.572 6.44947 14.5113C6.52394 14.4506 6.60963 14.4052 6.70165 14.3777C6.79367 14.3501 6.89022 14.3409 6.98578 14.3507C7.97215 14.4494 12.8966 15.0713 12.8966 17.6C12.8966 19.9482 9.80906 20.6429 6.82176 21.3168C4.54398 21.8304 1.96043 22.4123 1.96043 23.5434C1.96043 23.6918 1.99605 23.9182 2.29738 24.2114C4.53508 26.4157 14.703 26.7155 18.4325 26.6405C18.6235 26.6415 18.8064 26.7171 18.9424 26.8511C19.0784 26.9851 19.1566 27.167 19.1604 27.3579C19.1642 27.5487 19.0932 27.7335 18.9626 27.8728C18.8321 28.0121 18.6522 28.0949 18.4615 28.1034C18.2655 28.1071 17.8536 28.113 17.2859 28.113ZM5.66469 0.855469C4.51812 0.856647 3.41883 1.31254 2.60794 2.12315C1.79706 2.93375 1.34079 4.03289 1.33922 5.17945C1.33922 7.38746 4.86238 12.5479 5.26391 13.129C5.30857 13.1941 5.3684 13.2473 5.43822 13.284C5.50805 13.3208 5.58578 13.34 5.66469 13.34C5.7436 13.34 5.82133 13.3208 5.89115 13.284C5.96098 13.2473 6.02081 13.1941 6.06547 13.129C6.46773 12.5479 9.98867 7.38672 9.98867 5.17945C9.98749 4.03302 9.53155 2.93389 8.7209 2.12324C7.91025 1.31259 6.81112 0.856648 5.66469 0.855469ZM5.66469 5.96172C5.33177 5.96186 5.00628 5.86329 4.72938 5.67845C4.45249 5.49361 4.23662 5.23081 4.10908 4.92329C3.98154 4.61576 3.94806 4.27733 4.01286 3.95077C4.07767 3.62422 4.23785 3.32422 4.47316 3.0887C4.70847 2.85319 5.00833 2.69274 5.33483 2.62764C5.66132 2.56255 5.99979 2.59574 6.30742 2.723C6.61506 2.85027 6.87805 3.06591 7.06313 3.34264C7.24821 3.61937 7.34708 3.94477 7.34723 4.2777C7.34723 4.72407 7.17001 5.15218 6.85451 5.46795C6.53902 5.78373 6.11106 5.96133 5.66469 5.96172Z" fill="#A855F7"/>
</svg>
