<svg width="97" height="100" viewBox="0 0 97 100" fill="none" xmlns="http://www.w3.org/2000/svg">
<path d="M91.2933 73.2422C94.4238 66.8785 96.1849 59.7195 96.1849 52.1484C96.1849 25.7207 74.7611 4.29688 48.3334 4.29688C21.9056 4.29688 0.481812 25.7207 0.481812 52.1484C0.481812 59.7195 2.24294 66.8785 5.37341 73.2422H91.2933Z" fill="#64C0F4"/>
<path d="M33.7121 48.8406H37.7709V51.8179H33.7121V48.8406ZM58.8994 48.8406H62.9582V51.8179H58.8994V48.8406Z" fill="#0F3E4C"/>
<path d="M34.3601 51.5168C32.2222 54.7439 33.0517 58.6898 34.1386 61.4516C37.9363 71.1 48.1685 74.7211 48.2715 74.7566L48.3351 74.7785L48.3988 74.7566C48.5017 74.7211 58.7341 71.1 62.5318 61.4516C63.6185 58.6906 64.4478 54.7457 62.3115 51.5189L62.2795 51.5049C60.8794 50.8924 59.3678 50.5762 57.8396 50.5762H38.8275C37.2993 50.5762 35.7877 50.8924 34.3877 51.5049L34.3601 51.5168Z" fill="#EBF0F2"/>
<path d="M34.3875 51.5048L34.3602 51.5167C32.2221 54.7439 33.0518 58.6898 34.1385 61.4515C37.9361 71.0999 48.1684 74.721 48.2715 74.7566L48.3352 74.7785L48.3988 74.7566C48.4037 74.7548 48.4332 74.7445 48.484 74.7255C48.4344 74.6744 48.3867 74.6232 48.3352 74.5718C41.3611 67.5978 46.0695 61.1861 46.0695 61.1861L41.2686 50.5759H38.8273C37.2992 50.5761 35.7876 50.8923 34.3875 51.5048Z" fill="#C2D4E6"/>
<path d="M86.6363 63.3111C85.5945 61.4492 83.9393 60.0061 81.9527 59.2277L76.4391 57.0669C77.0334 59.4136 75.818 62.3015 72.8225 65.6529C68.4682 70.5242 62.0459 72.9816 57.4252 74.1853C52.4068 75.4925 48.3688 75.6449 48.342 75.6462C48.3018 75.6447 44.2715 75.4935 39.2541 74.1874C34.6305 72.9839 28.2045 70.5263 23.8482 65.6527C20.8521 62.3007 19.6367 59.4123 20.2318 57.0652L14.7145 59.2275C12.728 60.006 11.0728 61.449 10.0309 63.3109C8.49395 66.056 6.84727 69.5089 5.27637 73.0468C10.0596 82.8835 18.1146 90.8343 28.0254 95.4869V90.6023C28.0254 89.4298 28.9846 88.4706 30.157 88.4706H66.6414C67.8139 88.4706 68.773 89.4298 68.773 90.6023V95.4249C78.6234 90.7638 86.6281 82.8396 91.3902 73.0466C89.8195 69.5089 88.1729 66.056 86.6363 63.3111Z" fill="#2C2C42"/>
<path d="M23.85 66.842C24.0968 66.7197 24.3081 66.5361 24.4637 66.3088C24.2538 66.0946 24.0485 65.876 23.848 65.6529C20.8519 62.301 19.6365 59.4125 20.2316 57.0654L14.7143 59.2277C12.7278 60.0062 11.0726 61.4493 10.0307 63.3111C8.49394 66.0561 6.84727 69.509 5.27637 73.0469C7.72695 78.0865 11.0383 82.6293 15.016 86.4891C15.8227 82.9648 17.0633 77.5881 17.9203 74.0783C19.0008 69.6537 22.4504 67.5357 23.85 66.842Z" fill="#212135"/>
<path d="M48.3334 100C55.7229 100 62.7207 98.3248 68.9686 95.3336V90.2117C68.9686 89.0393 68.0094 88.0801 66.8369 88.0801H29.9617C28.7893 88.0801 27.8301 89.0393 27.8301 90.2117V95.3953C34.0445 98.3473 40.9957 100 48.3334 100Z" fill="#FBCC68"/>
<path d="M44.9576 92.8652C44.9576 90.602 46.4881 88.6803 48.5648 88.0801H29.9619C28.7894 88.0801 27.8303 89.0393 27.8303 90.2117V95.3953C33.0832 97.8904 38.8637 99.4525 44.9578 99.8777L44.9576 92.8652Z" fill="#EFAA42"/>
<path d="M64.8339 52.5189L62.5634 51.6291L62.2792 51.5046C60.8792 50.8921 59.3676 50.5759 57.8394 50.5759H38.8273C37.2991 50.5759 35.7875 50.8921 34.3875 51.5046L34.1033 51.6291L31.8328 52.5189C33.68 59.9136 40.3666 65.3916 48.3333 65.3916C56.3001 65.3916 62.9867 59.9136 64.8339 52.5189Z" fill="#C2D4E6"/>
<path d="M35.5753 51.2428C35.7019 51.2119 35.8285 51.1805 35.956 51.151C36.0367 51.0701 36.1167 50.9852 36.1959 50.8965C35.5767 51.0468 34.9716 51.2503 34.3875 51.5047L34.1033 51.6291L31.8328 52.5189C33.3847 58.7316 38.3531 63.5898 44.6261 64.9848C44.981 62.6695 46.0695 61.1861 46.0695 61.1861L45.8759 60.7584C40.8896 59.8205 36.8923 56.085 35.5753 51.2428Z" fill="#99B8DA"/>
<path d="M61.2236 51.1061C60.1298 50.755 58.9881 50.5763 57.8394 50.5762H38.8273C37.6763 50.5762 36.5347 50.7559 35.4431 51.1061C36.7845 56.9887 42.0443 61.3799 48.3334 61.3799C54.6224 61.3799 59.8822 56.9887 61.2236 51.1061Z" fill="#E0D3CD"/>
<path d="M57.716 45.6675C56.0711 47.9958 53.8652 50.1716 50.9232 51.5947C50.1229 51.9818 49.2441 52.1954 48.3551 52.1972H48.3207C47.4277 52.1958 46.5457 51.9794 45.7422 51.5902C42.8014 50.1656 40.5969 47.9884 38.9529 45.6593C38.3617 47.8484 37.2648 50.2327 35.9559 51.5415C35.8283 51.571 35.702 51.6023 35.5752 51.6333C37.1027 57.249 42.2338 61.3798 48.3332 61.3798C54.4326 61.3798 59.5637 57.249 61.091 51.6333C60.9645 51.6025 60.8379 51.571 60.7104 51.5415C59.4035 50.2345 58.3076 47.8542 57.716 45.6675Z" fill="#FFAA7B"/>
<path d="M48.7559 52.1805C48.6225 52.1908 48.4888 52.1963 48.3551 52.1971H48.3207C47.4277 52.1957 46.5457 51.9793 45.7422 51.59C42.8014 50.1654 40.5969 47.9883 38.9529 45.6592C38.3619 47.8482 37.2648 50.2326 35.9559 51.5414C35.8283 51.5709 35.7018 51.6021 35.5752 51.6332C36.9094 56.5381 40.9928 60.3098 46.0693 61.1859C47.718 58.2975 48.4459 54.9264 48.7559 52.1805Z" fill="#F7996B"/>
<path d="M65.7447 26.873C65.025 26.2134 63.5916 26.5478 62.9716 26.9517C63.1074 27.7972 63.1152 28.6625 62.9978 29.5166L62.0716 34.8437C62.0716 35.2732 62.0208 35.6945 61.9958 36.1084C63.7794 36.6462 64.8974 35.0451 65.0466 33.9462C65.1107 33.4732 65.2162 33.0067 65.3617 32.5521C65.8363 31.0705 67.5478 28.5255 65.7447 26.873Z" fill="#FFAA7B"/>
<path d="M30.9258 26.873C31.6455 26.2134 33.0791 26.5478 33.6988 26.9517C33.5636 27.8007 33.5547 28.665 33.6727 29.5166L34.5988 34.8437C34.5988 35.2732 34.6975 35.6945 34.7223 36.1084C32.9387 36.6462 31.7731 35.0451 31.6236 33.9462C31.5595 33.4732 31.4541 33.0067 31.3086 32.5521C30.8342 31.0705 29.1227 28.5255 30.9258 26.873Z" fill="#F7996B"/>
<path d="M62.5314 25.3058C62.3668 24.8763 62.1593 24.4414 61.8978 24.031C61.4548 23.3361 61.2601 22.5142 61.3195 21.6947C61.4902 19.3377 61.3986 14.7277 58.3045 13.3353C55.6756 12.1523 52.4507 12.8373 50.3943 13.5213C49.0576 13.9654 47.6131 13.9654 46.2763 13.5213C44.2199 12.8375 40.9951 12.1525 38.3662 13.3353C35.2631 14.7316 35.1798 19.364 35.3525 21.7148C35.4137 22.5293 35.2103 23.3417 34.7726 24.0312C34.5304 24.4113 34.3345 24.8125 34.1761 25.2109C33.6285 26.5886 33.4771 28.0924 33.6787 29.5613L34.4041 34.8439C34.4041 34.8439 36.2103 47.3631 45.7423 51.981C46.5459 52.3703 47.4279 52.5867 48.3209 52.5881H48.3552C49.2443 52.5863 50.123 52.3726 50.9234 51.9855C60.2062 47.4955 62.1673 35.5156 62.2664 34.8732L62.2668 34.8441L62.9982 29.517C63.1929 28.0965 63.0451 26.6459 62.5314 25.3058Z" fill="#FFBB99"/>
<path d="M44.804 34.8439L44.3417 29.5613C44.2132 28.0923 44.3097 26.5888 44.6587 25.2109C44.7597 24.8125 44.8845 24.4113 45.0388 24.0312C45.3189 23.3416 45.4464 22.5281 45.4083 21.7148C45.3064 19.5369 45.3457 15.4029 46.9242 13.6959C46.7052 13.6488 46.4889 13.5906 46.2759 13.5212C44.2195 12.8375 40.9949 12.1525 38.366 13.3353C35.2628 14.7316 35.1796 19.364 35.3523 21.7148C35.4135 22.5292 35.2101 23.3417 34.7724 24.0312C34.5302 24.4113 34.3343 24.8125 34.1759 25.2109C33.6281 26.5886 33.4769 28.0923 33.6785 29.5613L34.4039 34.8439C34.4039 34.8439 36.2101 47.363 45.7421 51.981C46.5457 52.3703 47.4277 52.5867 48.3207 52.588H48.3548C49.2439 52.5863 50.1226 52.3726 50.923 51.9855C51.1524 51.8739 51.3791 51.7569 51.6029 51.6345C45.9017 46.7689 44.804 34.8439 44.804 34.8439Z" fill="#FFAA7B"/>
<path d="M68.0797 16.4166C68.9853 16.2787 69.9824 15.5658 70.5308 15.1207C70.7281 14.9605 70.6873 14.6535 70.4591 14.5418C66.1734 12.4447 63.5986 5.64663 60.1146 3.48882C57.1328 1.64195 54.5615 2.70562 53.7521 3.13492C53.6791 3.17353 53.5946 3.18444 53.5141 3.16563C53.4337 3.14682 53.3628 3.09956 53.3144 3.03257C52.1632 1.42808 50.2525 0.475931 49.1301 0.0259307C48.8304 -0.0941865 48.5447 0.222024 48.6943 0.508157C49.19 1.45659 49.3988 2.22906 49.4861 2.73863C49.5334 3.01519 49.2447 3.22886 48.9931 3.10445C45.2347 1.24683 38.5515 2.56929 34.4717 7.55777C31.0771 11.7084 28.4615 12.3306 27.5185 12.4097C27.4684 12.4139 27.4198 12.429 27.3761 12.454C27.3324 12.479 27.2947 12.5132 27.2657 12.5543C27.2367 12.5954 27.217 12.6424 27.2081 12.6919C27.1992 12.7414 27.2012 12.7923 27.214 12.841C27.5795 14.221 28.989 15.115 29.5857 15.439C29.7515 15.5291 29.8207 15.7394 29.7259 15.9025C29.4427 16.3902 28.8375 16.6859 28.4822 16.8244C28.4057 16.8542 28.3425 16.9106 28.3041 16.9832C28.2657 17.0557 28.2547 17.1397 28.273 17.2197C28.6158 18.7457 30.233 25.6644 31.9451 28.3466C33.1386 30.2166 33.7912 32.7425 34.1156 34.3976C34.1617 34.6328 34.5041 34.6117 34.5209 34.3726C34.6482 32.5669 34.833 29.6234 34.905 26.8654C34.9935 23.4818 37.9494 21.4933 39.2963 20.7611C39.5562 20.6197 39.8617 20.8519 39.7978 21.1408L39.6138 21.9742C39.5611 22.2132 39.7672 22.431 40.0084 22.3908C50.1045 20.7015 53.8119 17.2132 55.1656 15.039C55.2113 14.9653 55.2804 14.909 55.3619 14.8791C55.4433 14.8492 55.5325 14.8475 55.615 14.8742C55.7709 14.9242 55.8767 15.0671 55.8847 15.2306C56.2004 21.7269 61.223 22.5185 61.9476 25.4003C62.5422 27.7648 62.3908 32.2509 62.2763 34.3677C62.2607 34.6572 62.6576 34.7607 62.7814 34.4986C64.3562 31.1673 64.13 26.5615 66.6326 23.5173C68.666 21.0439 69.6121 19.4212 69.972 18.7318C70.0715 18.5416 69.9701 18.314 69.766 18.2478C68.8519 17.9521 68.2338 17.4033 67.8685 16.9814C67.6916 16.7769 67.8117 16.4574 68.0797 16.4166ZM71.4535 52.3959C70.8887 52.2051 70.405 51.8289 70.081 51.3285C68.9625 49.5935 65.6308 45.864 58.8996 48.8406C58.8996 48.8406 66.1588 51.7035 62.3502 61.3798C58.5416 71.0562 48.3353 74.5718 48.3353 74.5718V75.8414C48.3353 75.8414 64.472 75.288 72.9681 65.7828C81.0922 56.6937 74.116 53.2996 71.4535 52.3959ZM25.2168 52.3959C25.7816 52.2051 26.2652 51.8289 26.5892 51.3285C27.708 49.5935 31.0394 45.864 37.7709 48.8406C37.7709 48.8406 30.5117 51.7035 34.3203 61.3798C38.1289 71.0562 48.3351 74.5718 48.3351 74.5718V75.8414C48.3351 75.8414 32.1984 75.288 23.7023 65.7828C15.5781 56.6937 22.5543 53.2996 25.2168 52.3959Z" fill="#404051"/>
<path d="M24.3425 66.4649C24.4693 66.323 24.5687 66.159 24.6359 65.981C25.8289 62.7851 28.6164 64.4231 30.0949 61.7831C31.6574 58.9933 33.8273 59.9669 33.8273 59.9669C31.2275 51.4224 37.7711 48.8405 37.7711 48.8405C31.0396 45.864 27.7082 49.5935 26.5894 51.3284C26.2654 51.8288 25.7817 52.205 25.217 52.3958C22.5545 53.2993 15.5783 56.6937 23.7025 65.7827C23.9108 66.0149 24.1242 66.2423 24.3425 66.4649Z" fill="#2C2C42"/>
<path d="M71.8982 81.3748V93.8039C72.8961 93.2378 73.8733 92.6361 74.8279 92V81.3748C74.8279 80.9863 74.6736 80.6137 74.3989 80.339C74.1242 80.0642 73.7516 79.9099 73.3631 79.9099C72.9746 79.9099 72.602 80.0642 72.3273 80.339C72.0526 80.6137 71.8982 80.9863 71.8982 81.3748ZM24.9004 81.3748C24.9004 80.5656 24.2445 79.9099 23.4355 79.9099C22.6266 79.9099 21.9707 80.5656 21.9707 81.3748V92.0878C22.9256 92.7191 23.9028 93.316 24.9004 93.8773V81.3748Z" fill="#212135"/>
<path d="M62.8394 72.2529C64.3236 72.2529 65.5267 71.0498 65.5267 69.5656C65.5267 68.0814 64.3236 66.8783 62.8394 66.8783C61.3552 66.8783 60.1521 68.0814 60.1521 69.5656C60.1521 71.0498 61.3552 72.2529 62.8394 72.2529Z" fill="#2C2C42"/>
<path d="M33.8271 72.2529C35.3113 72.2529 36.5144 71.0498 36.5144 69.5656C36.5144 68.0814 35.3113 66.8783 33.8271 66.8783C32.343 66.8783 31.1398 68.0814 31.1398 69.5656C31.1398 71.0498 32.343 72.2529 33.8271 72.2529Z" fill="#2C2C42"/>
<path d="M62.8394 68.7075C62.4509 68.7075 62.0783 68.8619 61.8036 69.1366C61.5289 69.4113 61.3746 69.7839 61.3746 70.1724V91.5966C61.3746 92.4058 62.0304 93.0614 62.8394 93.0614C63.6484 93.0614 64.3043 92.4058 64.3043 91.5966V70.1724C64.3043 69.7839 64.1499 69.4113 63.8752 69.1366C63.6005 68.8619 63.2279 68.7075 62.8394 68.7075Z" fill="#545460"/>
<path d="M62.8394 87.1943C61.7285 87.1943 60.8277 88.0949 60.8277 89.2061V92.3768C60.8277 93.4879 61.7283 94.3885 62.8394 94.3885C63.9504 94.3885 64.8511 93.4879 64.8511 92.3768V89.2061C64.8511 88.0949 63.9504 87.1943 62.8394 87.1943Z" fill="#EBF0F2"/>
<path d="M33.8271 68.7075C33.4386 68.7075 33.0661 68.8619 32.7913 69.1366C32.5166 69.4113 32.3623 69.7839 32.3623 70.1724V91.5966C32.3623 92.4058 33.0182 93.0614 33.8271 93.0614C34.6361 93.0614 35.292 92.4058 35.292 91.5966V70.1724C35.292 69.7839 35.1377 69.4113 34.8629 69.1366C34.5882 68.8619 34.2156 68.7075 33.8271 68.7075Z" fill="#545460"/>
<path d="M33.8271 87.1943C32.7162 87.1943 31.8154 88.0949 31.8154 89.2061V92.3768C31.8154 93.4879 32.716 94.3885 33.8271 94.3885C34.9383 94.3885 35.8389 93.4879 35.8389 92.3768V89.2061C35.8389 88.0949 34.9383 87.1943 33.8271 87.1943Z" fill="#EBF0F2"/>
<path d="M62.8395 91.2632C61.7285 91.2632 60.8277 90.3626 60.8277 89.2515V92.3765C60.8277 93.4876 61.7285 94.3882 62.8395 94.3882C63.9506 94.3882 64.8512 93.4876 64.8512 92.3765V89.2515C64.8512 90.3628 63.9504 91.2632 62.8395 91.2632ZM33.8271 91.2632C32.7162 91.2632 31.8154 90.3626 31.8154 89.2515V92.3765C31.8154 93.4876 32.716 94.3882 33.8271 94.3882C34.9383 94.3882 35.8389 93.4876 35.8389 92.3765V89.2515C35.8389 90.3628 34.9383 91.2632 33.8271 91.2632Z" fill="#C2D4E6"/>
<path d="M45.4267 9.55988C40.4592 5.59855 48.9931 3.10461 48.9931 3.10461C45.2347 1.24699 38.5515 2.56945 34.4717 7.55793C31.0771 11.7085 28.4615 12.3308 27.5185 12.4099C27.4684 12.4141 27.4198 12.4292 27.3761 12.4542C27.3324 12.4791 27.2947 12.5134 27.2657 12.5545C27.2367 12.5956 27.217 12.6426 27.2081 12.6921C27.1992 12.7416 27.2012 12.7925 27.214 12.8411C27.5795 14.2212 28.989 15.1152 29.5857 15.4392C29.7515 15.5292 29.8207 15.7396 29.726 15.9027C29.4428 16.3903 28.8375 16.6861 28.4822 16.8245C28.4057 16.8544 28.3425 16.9107 28.3042 16.9833C28.2658 17.0559 28.2547 17.1398 28.273 17.2198C28.6158 18.7458 30.233 25.6646 31.9451 28.3468C33.1386 30.2167 33.7912 32.7427 34.1156 34.3978C34.1617 34.6329 34.5041 34.6118 34.5209 34.3728C34.6482 32.5671 34.833 29.6236 34.9049 26.8655C34.9933 23.482 37.9492 21.4935 39.2961 20.7612C39.556 20.6198 39.8615 20.8521 39.7976 21.1409L39.6136 21.9743C39.6015 22.0296 39.603 22.0871 39.6182 22.1416C39.6333 22.1962 39.6616 22.2462 39.7006 22.2873C39.7395 22.3284 39.7879 22.3593 39.8416 22.3774C39.8952 22.3954 39.9525 22.4001 40.0084 22.3909C42.0537 22.0487 43.8328 21.6318 45.3873 21.1679C43.2353 15.7546 50.3937 13.5208 45.4267 9.55988Z" fill="#2C2C42"/>
</svg>
