<svg width="148" height="148" viewBox="0 0 148 148" fill="none" xmlns="http://www.w3.org/2000/svg">
<g filter="url(#filter0_d_4192_20847)">
<path d="M73 123C100.614 123 123 100.614 123 73C123 45.3858 100.614 23 73 23C45.3858 23 23 45.3858 23 73C23 100.614 45.3858 123 73 123Z" fill="#CBD5E1"/>
<path d="M116.203 98.1562C111.984 105.422 105.891 111.594 98.625 115.891C97.6094 116.516 96.5938 117.062 95.5781 117.609C88.7812 121.047 81.125 123 73 123C64.875 123 57.2188 121.047 50.4219 117.609C49.4062 117.062 48.3125 116.516 47.375 115.891C40.1094 111.516 34.0938 105.422 29.875 98.1562C31.125 91.125 36.125 85.3438 42.9219 83L58.1562 77.7656L60.3438 76.9844H60.4219L62.0625 74.875H83.7812L85.7344 76.9844H85.8125L88 77.7656L103.078 82.9219C110.031 85.3437 114.953 91.125 116.203 98.1562Z" fill="#5E86C3"/>
<path d="M60.1094 65.8125C60.5781 69.5625 61.0469 74.1719 60.3438 77.1406C60.6563 78 60.9688 78.9375 61.2813 79.7969C63 84.875 67.7656 86.5938 73.1562 86.5938C78.5469 86.5938 83.3125 84.7969 85.0313 79.7187L85.9688 77.1406C85.2656 74.1719 85.8125 69.5625 86.2031 65.8125C86.6719 61.9844 87.2188 59.5625 87.375 59.7188C79.5625 51.9062 66.8281 51.9062 59.0156 59.7188C59.0938 59.5625 59.7188 61.9844 60.1094 65.8125Z" fill="#F1B97C"/>
<path d="M92.6144 56.6485C93.1814 53.5502 92.1616 50.7678 90.3365 50.4338C88.5115 50.0999 86.5724 52.3408 86.0054 55.4391C85.4385 58.5374 86.4583 61.3198 88.2834 61.6538C90.1084 61.9877 92.0475 59.7468 92.6144 56.6485Z" fill="#F8CFA3"/>
<path d="M90.5781 51.6719C90.3438 54.0156 90.1094 55.5781 90.1094 55.5781C89.7188 57.5312 89.4063 59.1719 89.0938 60.5781C90.1094 60.1875 91.2031 58.7031 91.5938 56.4375C92.0625 54.1719 91.4375 52.2188 90.5781 51.6719Z" fill="#F1B97C"/>
<path d="M73 29.0938C54.0937 29.9531 54.9531 44.3281 54.9531 44.3281C54.9531 50.0312 55.8906 55.5781 55.8906 55.5781C58.0781 67.6875 59.4844 68.5469 59.4844 68.5469C61.2031 71.0469 63.5469 73.0781 65.4219 74.4063C67.2187 75.7344 69.4844 76.5156 71.6719 76.5156H74.25C76.5156 76.5156 78.7031 75.8125 80.5 74.4063C82.375 73 84.6406 71.0469 86.4375 68.5469C86.4375 68.5469 87.8437 67.6875 90.0312 55.5781C90.0312 55.5781 90.9687 49.9531 90.9687 44.3281C90.9687 44.3281 91.8281 29.9531 73 29.0938Z" fill="#F8CFA3"/>
<path d="M57.621 61.6517C59.446 61.3177 60.4659 58.5353 59.8989 55.437C59.332 52.3387 57.3929 50.0978 55.5678 50.4317C53.7428 50.7657 52.723 53.5481 53.2899 56.6464C53.8569 59.7447 55.796 61.9856 57.621 61.6517Z" fill="#F8CFA3"/>
<path d="M55.3437 51.6719C55.5781 54.0156 55.8125 55.5781 55.8125 55.5781C56.2031 57.5312 56.5156 59.1719 56.8281 60.5781C55.8125 60.1875 54.7187 58.7031 54.3281 56.4375C53.9375 54.1719 54.4844 52.2188 55.3437 51.6719Z" fill="#F1B97C"/>
<path d="M73.3125 86.75L73.2344 86.6719L73.3125 86.5938V86.75Z" fill="#5E86C3"/>
<path d="M88.1563 77.7656V77.8437C87.8438 78.625 87.5313 79.4844 87.2969 80.4219C86.2813 83.3906 84.4063 85.6563 81.5938 87.0625C79.3281 88.2344 76.5156 88.8594 73.2344 88.8594C66.0469 88.8594 61.0469 85.8906 59.1719 80.5C58.8594 79.4844 58.5469 78.7031 58.2344 77.9219V77.7656L60.4219 76.9844V77.0625C60.7344 77.9219 61.0469 78.8594 61.3594 79.7188C63.0781 84.7969 67.8438 86.5156 73.2344 86.5156C78.625 86.5156 83.3906 84.7188 85.1094 79.6406L86.0469 77.0625V76.9844L88.1563 77.7656Z" fill="#1E1EE9"/>
<path d="M50.4219 117.609C49.4062 117.062 48.3125 116.516 47.375 115.891V106.672L50.4219 117.609ZM98.7031 106.672V115.891C97.6875 116.516 96.6719 117.062 95.6563 117.609L98.7031 106.672Z" fill="#4C5AA5"/>
<path d="M55.9687 56.125H56.3594C56.4375 53.7031 56.9844 44.25 59.5625 41.75C59.5625 41.75 68.3906 49.7188 88.4687 46.8281C88.2344 50.5 88.625 53.5469 89.4062 56.125H90.0312C90.1875 54.3281 90.7344 49.7969 92.1406 46.5156C93.2344 43.9375 93.5469 41.0469 92.7656 38.3125C91.3594 33.9375 87.1406 28.8594 74.7187 27.6094C71.5937 27.2969 68.4687 27.5313 65.5 28.3906C61.9062 29.4844 57.7656 31.75 56.3594 36.5156C56.3594 36.5156 49.3281 39.0156 55.5 53.7031L55.9687 56.125Z" fill="#4C525E"/>
<path d="M60.3438 34.5625C60.3438 34.5625 60.5 34.4844 60.7344 34.3281C63.2344 32.8438 66.5156 31.75 70.1094 31.4375C63.7813 32.2188 60.1875 35.3438 60.1875 35.3438C60.1875 35.3438 64.0938 32.2969 71.5938 31.9063C66.5156 32.4531 63.5469 34.6406 63.5469 34.6406C63.5469 34.6406 67.2969 32.8438 68.9375 32.8438C65.5 33.5469 62.375 35.5781 63.7031 34.875C66.125 33.7031 69.1719 33 72.5313 32.9219C66.6719 33.1563 63.1563 35.7344 63.1563 35.7344C63.1563 35.7344 67.1406 33.1563 73.7813 33.3906C65.1094 33.5469 61.5156 37.0625 61.5156 37.0625C61.5156 37.0625 63.625 35.5 68 34.4844C66.9844 34.875 64.7188 35.4219 62.4531 36.9063C61.6719 37.375 61.3594 37.7656 61.3594 37.7656C63.3906 36.2813 67.2188 34.7969 71.3594 34.6406C66.9063 35.1875 64.3281 37.2188 64.3281 37.2188C64.3281 37.1406 66.3594 36.2813 66.4375 36.2813C68 35.7344 69.0938 35.5781 69.0938 35.5781C65.8125 36.3594 64.25 37.6094 64.25 37.6094C64.25 37.6094 64.3281 37.5313 64.5625 37.4531C66.9063 36.2813 69.6406 35.7344 72.2969 35.6563C67.0625 35.8906 64.0938 38.3125 64.0938 38.3125C64.0938 38.3125 67.6875 36.0469 73.4688 36.2813C69.25 36.4375 66.9063 38.1563 66.9063 38.1563C66.9063 38.1563 66.9844 38.0781 67.1406 38.0781C72.2969 35.8906 79.1719 37.0625 84.3281 41.2813C84.4844 41.4375 86.2813 43.0781 86.3594 43.2344C86.3594 43.2344 85.1094 40.8125 81.8281 38.7813C85.8906 40.7344 87.8438 43.7031 87.8438 43.7031C87.8438 43.7031 86.4375 40.8125 82.9219 38.5469C87.2188 41.4375 88.4688 43.625 88.4688 43.625C88.4688 43.625 86.5156 39.4063 80.8125 36.6719C85.4219 38.3906 87.9219 41.4375 87.9219 41.4375C87.9219 41.4375 86.5156 39.25 83.7813 37.4531C86.5156 39.0938 88.3906 41.3594 88.3906 41.3594L87.9219 40.6563L88.5469 41.2813C88.5469 41.2813 86.9063 38.5469 83.4688 36.5156C88.4688 39.0156 89.25 41.5156 90.0313 41.9844C90.0313 41.9844 88.3906 38.7031 84.4844 36.2031C88.7031 38.7813 90.7344 41.9063 90.7344 41.9063C90.7344 41.9063 88.625 37.2969 82.1406 34.0938C87.375 36.125 90.1094 39.5625 90.1094 39.5625L89.4063 38.625C87.7656 36.6719 85.8125 35.0313 83.3906 33.7813C84.1719 34.1719 86.9844 35.4219 89.9531 38.5469C90.5 39.0938 90.7344 39.4063 90.7344 39.4063C90.7344 39.4063 88.5469 35.8125 83.7813 33.3125C70.8906 26.5156 60.3438 34.5625 60.3438 34.5625Z" fill="#535963"/>
</g>
<defs>
<filter id="filter0_d_4192_20847" x="0" y="0" width="148" height="148" filterUnits="userSpaceOnUse" color-interpolation-filters="sRGB">
<feFlood flood-opacity="0" result="BackgroundImageFix"/>
<feColorMatrix in="SourceAlpha" type="matrix" values="0 0 0 0 0 0 0 0 0 0 0 0 0 0 0 0 0 0 127 0" result="hardAlpha"/>
<feOffset dx="1" dy="1"/>
<feGaussianBlur stdDeviation="12"/>
<feComposite in2="hardAlpha" operator="out"/>
<feColorMatrix type="matrix" values="0 0 0 0 0 0 0 0 0 0 0 0 0 0 0 0 0 0 0.1 0"/>
<feBlend mode="normal" in2="BackgroundImageFix" result="effect1_dropShadow_4192_20847"/>
<feBlend mode="normal" in="SourceGraphic" in2="effect1_dropShadow_4192_20847" result="shape"/>
</filter>
</defs>
</svg>
