<svg width="18" height="20" viewBox="0 0 18 20" fill="none" xmlns="http://www.w3.org/2000/svg">
<path d="M1.43101 15.428C0.572022 16.2863 -3.8147e-06 17.1666 -3.8147e-06 18.6637V19.3333C-3.8147e-06 19.7015 0.298476 20 0.66667 20H17.3333C17.7015 20 18 19.7015 18 19.3333V18.6637C18 17.1653 17.428 16.2863 16.569 15.428C15.631 14.4903 12.654 13.598 11.9173 13.388C11.6286 12.6362 11.5257 11.8257 11.6173 11.0256L12.4317 10.3126C12.6103 10.1562 12.7534 9.96334 12.8514 9.74707C12.9494 9.5308 13.0001 9.29609 13 9.05865V8.63032C13.7755 8.47311 14.3328 7.79137 14.3328 7.00016C14.3328 6.20895 13.7755 5.52722 13 5.37001L13.285 4.22966L14.492 3.62601C14.7418 3.50124 14.9523 3.3101 15.1006 3.07354C15.2489 2.83699 15.3291 2.56417 15.3326 2.28501C15.336 2.00585 15.2625 1.73113 15.1201 1.491C14.9777 1.25086 14.7719 1.05458 14.5253 0.923686C13.7087 0.502343 12.087 0 8.99998 0C5.91296 0 4.29134 0.502343 3.475 0.923653C3.22828 1.05445 3.02238 1.2507 2.8799 1.49086C2.73741 1.73101 2.66385 2.00578 2.6673 2.285C2.67074 2.56422 2.75106 2.83709 2.89942 3.07366C3.04779 3.31022 3.25847 3.50134 3.50833 3.62601L4.71534 4.22966L5 5.37001C4.22454 5.52722 3.66718 6.20895 3.66718 7.00016C3.66718 7.79137 4.22454 8.47311 5 8.63032V9.05865C5.00007 9.29617 5.0509 9.53093 5.14909 9.7472C5.24728 9.96347 5.39057 10.1563 5.56934 10.3126L6.38368 11.0256C6.47531 11.8257 6.3724 12.6362 6.08369 13.388C5.34599 13.598 2.369 14.4903 1.43101 15.428ZM3.68365 19.3333H0.66667V18.6637C0.66667 17.3903 1.13932 16.662 1.90235 15.8993C2.34636 15.4553 3.45302 14.977 4.50235 14.5994L3.32503 16.4057C3.2654 16.497 3.22907 16.6015 3.21923 16.7101C3.20938 16.8187 3.22633 16.928 3.26857 17.0285C3.31082 17.129 3.37708 17.2177 3.46154 17.2866C3.54601 17.3556 3.6461 17.4027 3.75304 17.424L4.13304 17.4993C3.87438 18.0787 3.72215 18.7 3.68365 19.3333ZM5.36167 14.5L6.07434 15.2126C5.4202 15.6454 4.86873 16.216 4.45869 16.8846L3.88236 16.769L5.36167 14.5ZM7.99999 18.3333C7.6749 18.5786 7.45071 18.9342 7.36967 19.3333H5.68499C5.81257 18.0049 6.7253 16.8829 7.99999 16.4877V18.3333ZM10.6303 19.3333C10.5495 18.9342 10.3252 18.5785 10 18.3333L9.99601 16.4833C11.2725 16.8795 12.1867 18.0029 12.315 19.3333H10.6303ZM12.986 19.3333C12.8556 17.7104 11.7505 16.3303 10.1953 15.8483C10.0964 15.8171 9.99148 15.8098 9.88922 15.8272C9.78696 15.8446 9.69032 15.8861 9.60731 15.9483C9.52279 16.0107 9.45401 16.0919 9.40644 16.1855C9.35887 16.2792 9.33382 16.3826 9.33331 16.4876V18.5133C9.33325 18.5719 9.34863 18.6294 9.37789 18.6802C9.40714 18.7309 9.44925 18.773 9.49997 18.8023C9.70347 18.922 9.85769 19.1102 9.93496 19.3333H8.06662C8.14345 19.1105 8.29705 18.9223 8.49994 18.8023C8.55066 18.773 8.59277 18.7309 8.62203 18.6802C8.65128 18.6294 8.66666 18.5719 8.6666 18.5133V16.4876C8.66629 16.3824 8.64135 16.2787 8.59377 16.1848C8.54619 16.0909 8.47729 16.0095 8.39259 15.947C8.30967 15.8847 8.21308 15.8432 8.11087 15.8258C8.00865 15.8084 7.90376 15.8157 7.80492 15.847C6.2492 16.329 5.1438 17.7098 5.01391 19.3333H4.35026C4.52089 16.8909 6.55195 14.9968 9.00025 14.9968C11.4485 14.9968 13.4796 16.8909 13.6502 19.3333L12.986 19.3333ZM6.76434 13.47C6.9722 12.881 7.07959 12.2613 7.08201 11.6367L7.40369 11.918C7.7072 12.1835 8.09671 12.33 8.5 12.3303H9.5C9.90364 12.3303 10.2935 12.1838 10.5973 11.918L10.919 11.6367C10.9214 12.2613 11.0288 12.881 11.2367 13.47L9.00002 14.3106L6.76434 13.47ZM16.0977 15.8993C16.8606 16.662 17.3333 17.3903 17.3333 18.6637V19.3333H14.3163C14.2781 18.7003 14.1264 18.0793 13.8683 17.5L14.2483 17.4247C14.3553 17.4034 14.4554 17.3561 14.5399 17.2871C14.6244 17.2181 14.6906 17.1294 14.7329 17.0288C14.7751 16.9282 14.792 16.8188 14.7821 16.7102C14.7721 16.6015 14.7357 16.497 14.676 16.4057L13.4999 14.6C14.547 14.977 15.6536 15.4554 16.0976 15.9L16.0977 15.8993ZM14.118 16.77L13.5413 16.8847C13.1314 16.2159 12.5799 15.6451 11.9257 15.2123L12.6384 14.5L14.118 16.77ZM11.6823 14.014C11.8115 14.0503 11.9403 14.0879 12.0687 14.1267L11.3223 14.873C11.0118 14.7219 10.6871 14.6016 10.353 14.514L11.6823 14.014ZM4.90332 3.579L3.80333 3.02968C3.66156 2.95907 3.54239 2.85018 3.45932 2.71533C3.37626 2.58048 3.33261 2.42506 3.33333 2.26668C3.33144 2.11248 3.37221 1.96075 3.45116 1.82828C3.5301 1.6958 3.64414 1.58773 3.78066 1.51602C4.53332 1.1287 6.04698 0.666674 8.99998 0.666674C11.953 0.666674 13.4683 1.12866 14.2196 1.51635C14.356 1.58811 14.4699 1.69615 14.5488 1.82856C14.6277 1.96096 14.6685 2.11257 14.6666 2.26668C14.6672 2.42518 14.6232 2.58066 14.5399 2.71546C14.4565 2.85027 14.337 2.95901 14.195 3.02935L13.095 3.57867C12.715 3.205 11.7 2.66666 8.99998 2.66666C6.29999 2.66666 5.285 3.205 4.90332 3.579ZM12.642 4.05834L12.39 5.06667C11.2736 5.2827 10.1364 5.37215 9.00002 5.33333C7.86359 5.37203 6.72642 5.28258 5.61002 5.06667L5.3597 4.06668C5.54736 3.87502 6.31705 3.33334 9.00002 3.33334C11.7197 3.33334 12.4737 3.89001 12.642 4.05834ZM6.00866 9.81098C5.90133 9.7172 5.81528 9.60155 5.7563 9.4718C5.69731 9.34205 5.66674 9.20118 5.66665 9.05865V8.33033C5.66665 8.14625 5.51741 7.99701 5.33332 7.99701C4.84637 8.00108 4.42818 7.65181 4.34544 7.17194C4.2627 6.69207 4.53979 6.2229 4.99997 6.06368V6.66369C4.99997 6.84777 5.14921 6.99701 5.33329 6.99701C5.51737 6.99701 5.66661 6.84777 5.66661 6.66369V5.76104C6.76766 5.946 7.88378 6.02602 8.99995 6.00004C10.1161 6.02602 11.2322 5.946 12.3333 5.76104V6.66369C12.3333 6.84777 12.4825 6.99701 12.6666 6.99701C12.8507 6.99701 12.9999 6.84777 12.9999 6.66369V6.06368C13.4601 6.2229 13.7372 6.69207 13.6545 7.17194C13.5717 7.65181 13.1535 8.00111 12.6666 7.99701C12.4825 7.99701 12.3333 8.14625 12.3333 8.33033V9.05865C12.3332 9.20113 12.3028 9.34196 12.2439 9.47171C12.185 9.60146 12.0991 9.71713 11.9919 9.81098L10.1586 11.416C9.97631 11.5756 9.74224 11.6636 9.49993 11.6636H8.49994C8.25763 11.6636 8.02357 11.5756 7.84127 11.416L6.00866 9.81098ZM7.64767 14.514C7.31358 14.6016 6.98892 14.7219 6.67835 14.873L5.93137 14.1267C6.05978 14.0879 6.18856 14.0503 6.3177 14.014L7.64767 14.514Z" fill="black"/>
</svg>
