<svg width="16" height="16" viewBox="0 0 16 16" fill="none" xmlns="http://www.w3.org/2000/svg">
<path d="M13.5422 2.04281V1.69687C13.5415 1.43146 13.4357 1.17712 13.2481 0.989438C13.0604 0.80176 12.806 0.696014 12.5406 0.695312C12.2751 0.695602 12.0205 0.801216 11.8327 0.988983C11.645 1.17675 11.5394 1.43133 11.5391 1.69687V2.02656H10.5141V1.69687C10.5141 1.43151 10.4088 1.177 10.2213 0.989215C10.0338 0.801431 9.77942 0.695726 9.51406 0.695312C9.24853 0.695643 8.99397 0.801271 8.80622 0.989029C8.61846 1.17679 8.51283 1.43135 8.5125 1.69687V2.02656H7.4875V1.69687C7.4875 1.56545 7.46161 1.43531 7.41132 1.31389C7.36103 1.19247 7.28731 1.08215 7.19438 0.989216C7.10145 0.896285 6.99112 0.822568 6.8697 0.772274C6.74828 0.72198 6.61814 0.696094 6.48672 0.696094C6.35529 0.696094 6.22516 0.72198 6.10374 0.772274C5.98232 0.822568 5.87199 0.896285 5.77906 0.989216C5.68613 1.08215 5.61241 1.19247 5.56212 1.31389C5.51182 1.43531 5.48594 1.56545 5.48594 1.69687V2.02656H4.46094V1.69687C4.46024 1.43146 4.35449 1.17712 4.16681 0.989438C3.97913 0.80176 3.72479 0.696014 3.45937 0.695312C3.19385 0.695643 2.93929 0.801271 2.75153 0.989029C2.56377 1.17679 2.45814 1.43135 2.45781 1.69687V2.04281C1.97198 2.10272 1.52475 2.33801 1.20019 2.70447C0.87563 3.07092 0.696089 3.5433 0.695312 4.03281V13.2984C0.695933 13.8303 0.907504 14.3403 1.28361 14.7164C1.65973 15.0925 2.16966 15.3041 2.70156 15.3047H13.2984C13.8303 15.3041 14.3403 15.0925 14.7164 14.7164C15.0925 14.3403 15.3041 13.8303 15.3047 13.2984V4.03281C15.3039 3.5433 15.1244 3.07092 14.7998 2.70447C14.4753 2.33801 14.028 2.10272 13.5422 2.04281ZM12.0859 1.69687C12.0861 1.57634 12.1341 1.46078 12.2193 1.37555C12.3045 1.29031 12.4201 1.24235 12.5406 1.24219C12.661 1.24293 12.7762 1.29107 12.8613 1.37618C12.9464 1.46129 12.9946 1.57651 12.9953 1.69687V2.90312C12.9953 3.02372 12.9474 3.13937 12.8621 3.22464C12.7769 3.30991 12.6612 3.35781 12.5406 3.35781C12.42 3.35781 12.3044 3.30991 12.2191 3.22464C12.1338 3.13937 12.0859 3.02372 12.0859 2.90312V1.69687ZM9.05937 1.69687C9.0595 1.57632 9.10744 1.46074 9.19269 1.3755C9.27793 1.29026 9.39351 1.24231 9.51406 1.24219C9.6344 1.24256 9.74967 1.29063 9.83461 1.37587C9.91955 1.4611 9.96723 1.57654 9.96719 1.69687V2.90312C9.96719 3.02351 9.91936 3.13896 9.83424 3.22409C9.74912 3.30921 9.63366 3.35703 9.51328 3.35703C9.3929 3.35703 9.27744 3.30921 9.19232 3.22409C9.1072 3.13896 9.05937 3.02351 9.05937 2.90312V1.69687ZM6.03281 1.69687C6.03281 1.57649 6.08064 1.46104 6.16576 1.37591C6.25088 1.29079 6.36633 1.24297 6.48672 1.24297C6.6071 1.24297 6.72255 1.29079 6.80768 1.37591C6.8928 1.46104 6.94063 1.57649 6.94063 1.69687V2.90312C6.94063 3.02351 6.8928 3.13896 6.80768 3.22409C6.72255 3.30921 6.6071 3.35703 6.48672 3.35703C6.36633 3.35703 6.25088 3.30921 6.16576 3.22409C6.08064 3.13896 6.03281 3.02351 6.03281 2.90312V1.69687ZM3.00469 1.69687C3.00481 1.57632 3.05276 1.46074 3.138 1.3755C3.22324 1.29026 3.33882 1.24231 3.45937 1.24219C3.57974 1.24293 3.69496 1.29107 3.78007 1.37618C3.86518 1.46129 3.91332 1.57651 3.91406 1.69687V2.90312C3.91406 3.02372 3.86616 3.13937 3.78089 3.22464C3.69562 3.30991 3.57997 3.35781 3.45937 3.35781C3.33878 3.35781 3.22313 3.30991 3.13786 3.22464C3.05259 3.13937 3.00469 3.02372 3.00469 2.90312V1.69687ZM2.45781 2.59547V2.90312C2.45781 3.16876 2.56333 3.42351 2.75116 3.61134C2.93899 3.79917 3.19374 3.90469 3.45937 3.90469C3.72501 3.90469 3.97976 3.79917 4.16759 3.61134C4.35542 3.42351 4.46094 3.16876 4.46094 2.90312V2.57344H5.48594V2.90312C5.48594 3.16855 5.59138 3.4231 5.77906 3.61078C5.96674 3.79847 6.22129 3.90391 6.48672 3.90391C6.75214 3.90391 7.00669 3.79847 7.19438 3.61078C7.38206 3.4231 7.4875 3.16855 7.4875 2.90312V2.57344H8.5125V2.90312C8.5125 3.16855 8.61794 3.4231 8.80562 3.61078C8.99331 3.79847 9.24786 3.90391 9.51328 3.90391C9.7787 3.90391 10.0333 3.79847 10.2209 3.61078C10.4086 3.4231 10.5141 3.16855 10.5141 2.90312V2.57344H11.5391V2.90312C11.5391 3.16876 11.6446 3.42351 11.8324 3.61134C12.0202 3.79917 12.275 3.90469 12.5406 3.90469C12.8063 3.90469 13.061 3.79917 13.2488 3.61134C13.4367 3.42351 13.5422 3.16876 13.5422 2.90312V2.59547C13.8818 2.65325 14.19 2.82921 14.4125 3.09225C14.6349 3.35529 14.7572 3.68848 14.7578 4.03297V4.85594H1.24219V4.03281C1.2428 3.68835 1.36513 3.3552 1.58756 3.09219C1.81 2.82918 2.11823 2.65325 2.45781 2.59547ZM13.2984 14.7578H2.70156C2.31465 14.7574 1.94372 14.6035 1.67013 14.3299C1.39654 14.0563 1.24264 13.6853 1.24219 13.2984V5.40313H14.7578V13.2984C14.7574 13.6853 14.6035 14.0563 14.3299 14.3299C14.0563 14.6035 13.6853 14.7574 13.2984 14.7578Z" fill="black"/>
</svg>
