<svg width="20" height="14" viewBox="0 0 20 14" fill="none" xmlns="http://www.w3.org/2000/svg">
<path d="M4.96875 6.50002L3.375 6.15627C2.9375 6.06252 2.53125 6.40627 2.53125 6.84377V7.50002C2.53125 8.03127 2.9375 8.15627 3.4375 8.15627H5.1875C5.53125 8.15627 5.875 8.09377 5.875 7.71877V7.62502C5.875 7.06252 5.5 6.59377 4.96875 6.50002ZM3.125 7.50002V6.81252C3.125 6.75002 3.1875 6.68752 3.25 6.71877L4.84375 7.06252C5.0625 7.12502 5.21875 7.31252 5.25 7.53127C4.15625 7.53127 3.21875 7.53127 3.125 7.50002Z" fill="black"/>
<path d="M19.1562 3.15625L16.9062 2.09375C16.1562 1.75 15.3438 1.625 14.5625 1.78125L14.2188 1.09375C13.9688 0.46875 13.375 0.03125 12.6875 0.03125H5.375C4.6875 0.03125 4.09375 0.4375 3.84375 1.0625L2.625 3.59375C2.34375 3.1875 1.875 2.9375 1.375 2.9375H0.84375C0.375 2.9375 0 3.3125 0 3.78125V4.125C0 4.59375 0.375 4.96875 0.84375 4.96875H1.65625C1.3125 5.40625 1.15625 5.96875 1.15625 6.53125V8.40625C1.15625 9.125 1.40625 9.8125 1.90625 10.4062V11.8125C1.90625 12.4375 2.40625 12.9375 3.03125 12.9375H4.1875C4.8125 12.9375 5.3125 12.4375 5.3125 11.8125V11.25H11.5625C12.9375 13.125 15.0938 13.9375 15.125 13.9375C15.1875 13.9688 15.25 13.9688 15.3438 13.9375C15.375 13.9062 20 12.2188 20 8V4.5C20 3.9375 19.6562 3.40625 19.1562 3.15625ZM4.40625 1.3125C4.5625 0.90625 4.9375 0.65625 5.375 0.65625H12.6875C13.125 0.65625 13.5 0.90625 13.6875 1.34375L13.9688 1.9375C13.8438 1.96875 13.7188 2.03125 13.5938 2.09375L11.3438 3.15625C10.8438 3.40625 10.5 3.90625 10.5 4.46875H2.84375C2.96875 4.28125 2.84375 4.59375 4.40625 1.3125ZM0.625 4.125V3.78125C0.625 3.65625 0.71875 3.5625 0.84375 3.5625H1.375C2 3.5625 2.21875 4.125 2.28125 4.21875C2.25 4.28125 2.21875 4.3125 2.15625 4.375H0.84375C0.71875 4.34375 0.625 4.25 0.625 4.125ZM4.6875 11.7812C4.6875 12.0625 4.46875 12.2812 4.1875 12.2812H3C2.71875 12.3125 2.5 12.0625 2.5 11.7812V10.875C2.875 11.0938 3.3125 11.2188 3.75 11.2188H4.6875V11.7812ZM3.71875 10.625C2.59375 10.625 1.71875 9.53125 1.71875 8.375V6.5C1.71875 5.96875 1.9375 5.46875 2.3125 5.0625H10.5V7.8125H7.0625C6.90625 7.8125 6.75 7.9375 6.75 8.125C6.75 8.3125 6.875 8.4375 7.0625 8.4375H10.5312C10.5625 8.65625 10.5625 8.84375 10.625 9.03125H7.0625C6.90625 9.03125 6.75 9.15625 6.75 9.34375C6.75 9.53125 6.875 9.65625 7.0625 9.65625H10.75C10.875 10 11 10.3437 11.1875 10.625H3.71875ZM19.375 8C19.375 11.4688 15.875 13.0625 15.25 13.3125C13 12.4062 11.125 10.4688 11.125 8V4.5C11.125 4.15625 11.3125 3.875 11.625 3.71875L13.875 2.65625C14.7813 2.21875 15.7812 2.21875 16.6875 2.65625L18.9375 3.71875C19.2188 3.875 19.4375 4.15625 19.4375 4.5V8H19.375Z" fill="black"/>
<path d="M18.3125 4.4375L16.25 3.46875C15.625 3.15625 14.8437 3.15625 14.2187 3.46875L12.1875 4.4375C12.0937 4.5 12 4.59375 12 4.71875V8C12 10.4687 14.1562 11.8125 15.0937 12.2812C15.1875 12.3125 15.2812 12.3125 15.375 12.2812C16.3125 11.8125 18.4687 10.4687 18.4687 8V4.71875C18.4687 4.59375 18.4062 4.5 18.3125 4.4375ZM17.875 8C17.875 10 16.125 11.1875 15.25 11.6562C14.2187 11.0937 12.625 9.96875 12.625 8V4.90625L14.5 4C14.9688 3.78125 15.5312 3.78125 16 4L17.875 4.90625V8Z" fill="black"/>
<path d="M14.0313 7.9062C13.9063 7.81245 13.7188 7.84369 13.5938 7.96869C13.4688 8.09369 13.5313 8.28119 13.6563 8.40619L14.8438 9.31245C14.9688 9.4062 15.1563 9.37495 15.2813 9.24995L17.0313 6.96869C17.125 6.84369 17.0938 6.65619 16.9688 6.53119C16.8438 6.43744 16.6563 6.4687 16.5313 6.5937L14.9688 8.62495L14.0313 7.9062Z" fill="black"/>
</svg>
