<svg width="20" height="20" viewBox="0 0 20 20" fill="none" xmlns="http://www.w3.org/2000/svg">
<path d="M12.2693 13.86C12.6878 13.3611 12.6225 12.6147 12.1237 12.196L11.3998 11.5887C11.3518 11.5484 11.2898 11.5289 11.2274 11.5343C11.165 11.5398 11.1073 11.5698 11.067 11.6178L8.6376 14.5131C8.61766 14.5368 8.6026 14.5643 8.59328 14.5939C8.58396 14.6235 8.58055 14.6546 8.58326 14.6855C8.58597 14.7164 8.59474 14.7465 8.60907 14.774C8.6234 14.8015 8.643 14.8259 8.66677 14.8459C8.69054 14.8658 8.718 14.8809 8.74759 14.8902C8.77717 14.8995 8.80831 14.9029 8.83921 14.9002C8.87011 14.8975 8.90018 14.8887 8.92769 14.8744C8.95521 14.8601 8.97963 14.8405 8.99957 14.8167L10.0624 13.55L10.6053 14.0056C10.6416 14.0359 10.6798 14.0641 10.7195 14.0899L10.0465 15.7927C10.0349 15.8216 10.0291 15.8525 10.0294 15.8837C10.0298 15.9148 10.0363 15.9456 10.0486 15.9742C10.0609 16.0028 10.0787 16.0288 10.1011 16.0505C10.1234 16.0722 10.1499 16.0892 10.1788 16.1007C10.2078 16.1121 10.2388 16.1177 10.2699 16.1172C10.3011 16.1166 10.3318 16.1099 10.3603 16.0974C10.3889 16.0849 10.4147 16.0669 10.4362 16.0444C10.4578 16.0219 10.4746 15.9954 10.4859 15.9663L11.159 14.2632C11.5609 14.3336 11.9887 14.1944 12.2693 13.86ZM10.3661 13.1882L11.2771 12.1024L11.82 12.5579C12.1193 12.8091 12.1585 13.257 11.9074 13.5563C11.6562 13.8557 11.2083 13.8948 10.9089 13.6437L10.3661 13.1882ZM15.7841 15.2779C15.7541 15.2353 15.7109 15.2038 15.6612 15.1883C15.6115 15.1728 15.558 15.1741 15.5091 15.1922L13.5147 15.9282L13.8932 13.8362C13.9024 13.785 13.8944 13.7321 13.8705 13.6859C13.8466 13.6396 13.8081 13.6026 13.761 13.5805C13.7138 13.5584 13.6607 13.5524 13.6099 13.5636C13.559 13.5748 13.5133 13.6025 13.4798 13.6423L11.0503 16.5376C11.01 16.5856 10.9905 16.6476 10.996 16.71C11.0014 16.7724 11.0315 16.8301 11.0794 16.8704C11.1274 16.9107 11.1895 16.9302 11.2519 16.9248C11.3143 16.9193 11.372 16.8893 11.4122 16.8413L13.2699 14.6274L12.9762 16.2508C12.9688 16.2918 12.9723 16.334 12.9865 16.3732C13.0007 16.4123 13.0249 16.4471 13.0568 16.4738C13.0887 16.5006 13.1271 16.5184 13.1682 16.5256C13.2092 16.5327 13.2514 16.5289 13.2904 16.5145L14.8382 15.9433L12.9805 18.1572C12.9606 18.181 12.9455 18.2084 12.9362 18.238C12.9269 18.2676 12.9235 18.2987 12.9262 18.3296C12.9289 18.3605 12.9377 18.3906 12.952 18.4181C12.9663 18.4456 12.9859 18.4701 13.0097 18.49C13.0335 18.5099 13.0609 18.525 13.0905 18.5343C13.1201 18.5436 13.1512 18.547 13.1821 18.5443C13.213 18.5416 13.2431 18.5329 13.2706 18.5185C13.2981 18.5042 13.3225 18.4846 13.3425 18.4608L15.7719 15.5656C15.8054 15.5257 15.8247 15.4758 15.8269 15.4238C15.8291 15.3718 15.8141 15.3205 15.7841 15.2779ZM17.0711 2.9289C15.1824 1.04016 12.6712 0 10 0C7.52531 0 5.15035 0.910866 3.31264 2.5648C3.26638 2.6068 3.23865 2.66541 3.2355 2.7278C3.23236 2.79019 3.25406 2.85129 3.29585 2.89773C3.33765 2.94416 3.39613 2.97215 3.45851 2.97556C3.5209 2.97898 3.58209 2.95754 3.6287 2.91595C5.37949 1.34024 7.6422 0.472441 10 0.472441C15.2535 0.472441 19.5276 4.7465 19.5276 10C19.5276 11.1613 19.321 12.2958 18.9136 13.3719C18.8914 13.4305 18.8934 13.4955 18.9192 13.5526C18.9449 13.6097 18.9923 13.6543 19.0509 13.6765C19.1095 13.6986 19.1745 13.6966 19.2316 13.6709C19.2887 13.6451 19.3333 13.5978 19.3555 13.5392C19.7831 12.4094 20 11.2187 20 10C20 7.32886 18.9598 4.8176 17.0711 2.9289ZM0.472441 10C0.472441 7.90035 1.14193 5.90925 2.4085 4.24197C2.44582 4.19204 2.46189 4.1294 2.45321 4.06767C2.44454 4.00595 2.41182 3.95016 2.36219 3.91246C2.31256 3.87475 2.25004 3.85819 2.18825 3.86638C2.12646 3.87457 2.07042 3.90685 2.03232 3.95618C0.702756 5.70634 0 7.79626 0 10C0 12.3871 0.854725 14.698 2.40669 16.5071C2.42886 16.533 2.45638 16.5538 2.48735 16.568C2.51833 16.5822 2.55202 16.5896 2.5861 16.5895C2.63128 16.5895 2.6755 16.5765 2.71353 16.5521C2.75156 16.5278 2.7818 16.493 2.80065 16.4519C2.81951 16.4109 2.8262 16.3653 2.81993 16.3205C2.81366 16.2758 2.79469 16.2338 2.76528 16.1995C1.28673 14.476 0.472441 12.2743 0.472441 10Z" fill="black"/>
<path d="M17.7953 9.68504C17.7953 7.99177 16.4177 6.61417 14.7244 6.61417C14.5703 6.61417 14.4171 6.62657 14.2659 6.64952C14.091 6.15752 13.8812 5.6786 13.6382 5.21641L12.8831 3.78106C12.6222 3.28476 12.0421 3.03945 11.5037 3.19787L5.57177 4.94748C5.21701 5.05212 4.93717 5.31012 4.80406 5.65531C4.67095 6.00043 4.70504 6.37941 4.89752 6.695L5.35421 7.4446C5.36823 7.46764 5.38173 7.49008 5.39512 7.51244L2.34504 8.41205C1.99032 8.51661 1.71043 8.77445 1.57725 9.11949C1.44398 9.4646 1.47791 9.8437 1.6704 10.1596L2.12748 10.9092C3.05378 12.4289 3.5828 14.1724 3.65732 15.9513C3.68434 16.5929 3.76742 17.2309 3.90559 17.858C3.91773 17.9131 3.94917 17.962 3.99421 17.9959C5.26307 18.9507 6.75807 19.5949 8.31807 19.859L8.32646 19.8604C8.87945 19.9534 9.43924 20.0001 10 20C13.3917 20 16.5243 18.3023 18.3797 15.4586C18.4026 15.4235 18.4158 15.383 18.4178 15.3411C18.4227 15.2417 18.4252 15.1402 18.4252 15.0394C18.4252 13.6892 17.9926 12.4384 17.2591 11.4176C17.6101 10.9064 17.7953 10.3113 17.7953 9.68504ZM17.3228 9.68504C17.3228 10.1638 17.195 10.6211 16.9514 11.0239C15.8234 9.69252 14.1468 8.84035 12.2741 8.81976C12.6363 7.79976 13.6221 7.08661 14.7244 7.08661C16.1572 7.08661 17.3228 8.25224 17.3228 9.68504ZM5.75764 7.19874L5.30087 6.44901C5.18536 6.25968 5.16492 6.03232 5.2448 5.82527C5.32469 5.61815 5.49256 5.46334 5.7054 5.40055L11.6371 3.65098C11.9602 3.5559 12.3084 3.70307 12.4649 4.00086L13.22 5.4363C13.4441 5.86257 13.6386 6.30372 13.8022 6.75665C13.4368 6.87169 13.0933 7.05417 12.793 7.29732C12.304 7.6933 11.9469 8.23397 11.7736 8.8339C11.3727 8.86119 10.9754 8.92732 10.5873 9.03134C10.5307 8.91345 10.472 8.79664 10.411 8.68098L9.65618 7.24539C9.39484 6.74917 8.81484 6.50393 8.27681 6.66236L5.86248 7.37445C5.82811 7.31553 5.79316 7.25696 5.75764 7.19874ZM4.34839 17.6706C4.22723 17.0979 4.15396 16.5162 4.12933 15.9314C4.05146 14.0728 3.49874 12.2511 2.53083 10.6632L2.07378 9.91366C1.95831 9.72413 1.93795 9.49665 2.01795 9.28956C2.09788 9.08256 2.26579 8.92783 2.47866 8.86512L8.41047 7.11555C8.73327 7.02051 9.08142 7.16771 9.23819 7.46543L9.99303 8.9011C10.0404 8.99107 10.0865 9.08176 10.1311 9.17315C8.98689 9.57882 7.96469 10.3276 7.23095 11.3029C6.41536 12.3869 5.98425 13.6789 5.98425 15.0394C5.98425 16.5997 6.56484 18.0839 7.60016 19.2221C6.43276 18.918 5.3224 18.3894 4.34839 17.6706ZM16.0394 17.372C14.6914 18.4785 13.0593 19.1973 11.3097 19.438C9.22536 19.0163 7.71654 17.1727 7.71654 15.0394C7.71654 13.0392 9.05949 11.2628 10.9822 10.7195C11.3801 10.6075 11.7914 10.5509 12.2047 10.5512C14.6795 10.5512 16.6929 12.5646 16.6929 15.0394C16.6929 15.8652 16.4668 16.6709 16.0394 17.372ZM17.9487 15.2542C17.6466 15.7107 17.3061 16.1407 16.9309 16.5393C17.0861 16.0544 17.1652 15.5485 17.1654 15.0394C17.1654 12.3041 14.94 10.0787 12.2047 10.0787C11.7462 10.0787 11.2917 10.1413 10.8539 10.2648C8.72851 10.8654 7.2441 12.8288 7.2441 15.0394C7.2441 16.9913 8.38717 18.7237 10.0878 19.5269C10.0585 19.5272 10.0293 19.5276 10 19.5276C9.4858 19.5276 8.97242 19.4864 8.4648 19.4044C7.18776 18.3095 6.45669 16.7223 6.45669 15.0394C6.45669 12.4911 8.09276 10.281 10.5278 9.53976C11.0695 9.37492 11.6337 9.29134 12.2047 9.29134C15.3742 9.29134 17.9528 11.8699 17.9528 15.0394C17.9528 15.111 17.9514 15.183 17.9487 15.2542Z" fill="black"/>
</svg>
