<svg width="18" height="17" viewBox="0 0 18 17" fill="none" xmlns="http://www.w3.org/2000/svg">
<path d="M4.99156 3.63632C4.59562 3.63632 4.31969 3.42319 4.31969 3.23194C4.31969 3.14906 4.28676 3.06958 4.22816 3.01097C4.16955 2.95237 4.09007 2.91944 4.00719 2.91944C3.92431 2.91944 3.84482 2.95237 3.78622 3.01097C3.72761 3.06958 3.69469 3.14906 3.69469 3.23194C3.71598 3.48714 3.82619 3.72676 4.00609 3.909C4.18599 4.09124 4.42417 4.20454 4.67906 4.22913V4.48382C4.67906 4.5667 4.71199 4.64618 4.77059 4.70479C4.8292 4.76339 4.90868 4.79632 4.99156 4.79632C5.07444 4.79632 5.15393 4.76339 5.21253 4.70479C5.27114 4.64618 5.30406 4.5667 5.30406 4.48382V4.22913C5.55889 4.20449 5.79699 4.09122 5.97687 3.90905C6.15676 3.72688 6.26702 3.48737 6.28844 3.23226C6.28844 2.65476 5.71875 2.20288 4.99156 2.20288C4.59562 2.20288 4.31969 1.99007 4.31969 1.79851C4.35281 1.27038 5.63062 1.26976 5.66344 1.79851C5.66344 1.88139 5.69636 1.96087 5.75497 2.01948C5.81357 2.07808 5.89306 2.11101 5.97594 2.11101C6.05882 2.11101 6.1383 2.07808 6.19691 2.01948C6.25551 1.96087 6.28844 1.88139 6.28844 1.79851C6.26702 1.54339 6.15676 1.30388 5.97687 1.12171C5.79699 0.939542 5.55889 0.826269 5.30406 0.801631V0.546631C5.30406 0.463751 5.27114 0.384265 5.21253 0.32566C5.15393 0.267055 5.07444 0.234131 4.99156 0.234131C4.90868 0.234131 4.8292 0.267055 4.77059 0.32566C4.71199 0.384265 4.67906 0.463751 4.67906 0.546631V0.801318C3.19219 1.10444 3.48719 2.83007 4.99156 2.82788C5.87344 2.85101 5.87281 3.61319 4.99156 3.63632ZM2.24125 9.66194L1.90156 9.82851C1.82714 9.86497 1.77024 9.92951 1.7434 10.0079C1.71656 10.0863 1.72197 10.1722 1.75844 10.2466C1.7949 10.3211 1.85944 10.378 1.93786 10.4048C2.01627 10.4316 2.10214 10.4262 2.17656 10.3898C6.3538 8.40571 10.0779 5.58308 13.1172 2.09757V2.51538C13.1172 2.59826 13.1501 2.67775 13.2087 2.73635C13.2673 2.79496 13.3468 2.82788 13.4297 2.82788C13.5126 2.82788 13.5921 2.79496 13.6507 2.73635C13.7093 2.67775 13.7422 2.59826 13.7422 2.51538V1.25007C13.7387 1.1683 13.7047 1.0908 13.6468 1.03293C13.589 0.975052 13.5115 0.94102 13.4297 0.937568H12.1644C12.0815 0.937568 12.002 0.970492 11.9434 1.0291C11.8848 1.0877 11.8519 1.16719 11.8519 1.25007C11.8519 1.33295 11.8848 1.41243 11.9434 1.47104C12.002 1.52964 12.0815 1.56257 12.1644 1.56257H12.7528C9.83386 4.94677 6.25764 7.70253 2.24125 9.66257V9.66194ZM17.2269 16.1251H16.2738V5.04663C16.2738 4.96375 16.2408 4.88427 16.1822 4.82566C16.1236 4.76706 16.0441 4.73413 15.9613 4.73413H13.43C13.3471 4.73413 13.2676 4.76706 13.209 4.82566C13.1504 4.88427 13.1175 4.96375 13.1175 5.04663V16.1251H12.4766V7.57819C12.4766 7.49531 12.4436 7.41583 12.385 7.35722C12.3264 7.29862 12.2469 7.26569 12.1641 7.26569H9.63281C9.54993 7.26569 9.47045 7.29862 9.41184 7.35722C9.35324 7.41583 9.32031 7.49531 9.32031 7.57819V16.1251H8.67969V10.1091C8.67969 10.0263 8.64676 9.94677 8.58816 9.88816C8.52955 9.82956 8.45007 9.79663 8.36719 9.79663H5.83594C5.75306 9.79663 5.67357 9.82956 5.61497 9.88816C5.55636 9.94677 5.52344 10.0263 5.52344 10.1091V16.1251H4.88281V12.6407C4.88281 12.5578 4.84989 12.4783 4.79128 12.4197C4.73268 12.3611 4.65319 12.3282 4.57031 12.3282H2.03906C1.95618 12.3282 1.8767 12.3611 1.81809 12.4197C1.75949 12.4783 1.72656 12.5578 1.72656 12.6407V16.1251H0.773125C0.690245 16.1251 0.610759 16.158 0.552154 16.2166C0.493549 16.2752 0.460625 16.3547 0.460625 16.4376C0.460625 16.5204 0.493549 16.5999 0.552154 16.6585C0.610759 16.7171 0.690245 16.7501 0.773125 16.7501H17.2269C17.3098 16.7501 17.3892 16.7171 17.4478 16.6585C17.5065 16.5999 17.5394 16.5204 17.5394 16.4376C17.5394 16.3547 17.5065 16.2752 17.4478 16.2166C17.3892 16.158 17.3098 16.1251 17.2269 16.1251ZM2.35156 16.1251V12.9532H4.25781V16.1251H2.35156ZM6.14844 16.1251V10.4216H8.05469V16.1251H6.14844ZM9.94531 16.1251V7.89069H11.8516V16.1251H9.94531ZM13.7428 16.1251V5.35913H15.6491V16.1251H13.7428Z" fill="black"/>
</svg>
