<svg width="20" height="20" viewBox="0 0 20 20" fill="none" xmlns="http://www.w3.org/2000/svg">
<g clip-path="url(#clip0_1518_852)">
<path d="M13.5156 12.4609C13.2999 12.4609 13.125 12.6358 13.125 12.8516V15.5469C13.125 16.6238 12.2488 17.5 11.1719 17.5H6.95437C6.73871 17.5 6.56391 17.6747 6.56375 17.8904L6.5632 18.667L5.63086 17.7347C5.60048 17.6649 5.55039 17.6056 5.48675 17.5639C5.42312 17.5222 5.34869 17.5 5.27262 17.5H2.73438C1.65742 17.5 0.78125 16.6238 0.78125 15.5469V9.53125C0.78125 8.4543 1.65742 7.57812 2.73438 7.57812H6.67969C6.89539 7.57812 7.07031 7.40324 7.07031 7.1875C7.07031 6.97176 6.89539 6.79688 6.67969 6.79688H2.73438C1.22664 6.79688 0 8.02352 0 9.53125V15.5469C0 17.0546 1.22664 18.2812 2.73438 18.2812H5.07258L6.67691 19.8856C6.73152 19.9402 6.80109 19.9774 6.87684 19.9925C6.95258 20.0076 7.0311 19.9999 7.10246 19.9703C7.17383 19.9408 7.23485 19.8908 7.27779 19.8266C7.32074 19.7624 7.34369 19.6869 7.34375 19.6096L7.34469 18.2812H11.1719C12.6796 18.2812 13.9062 17.0546 13.9062 15.5469V12.8516C13.9062 12.6358 13.7313 12.4609 13.5156 12.4609Z" fill="black"/>
<path d="M14.3225 0H13.3338C10.2032 0 7.65625 2.54695 7.65625 5.67758C7.65625 8.8082 10.2032 11.3551 13.3338 11.3551H14.3224C14.8111 11.3551 15.2947 11.293 15.7634 11.1704L17.2239 12.63C17.2785 12.6846 17.3481 12.7218 17.4239 12.7368C17.4996 12.7519 17.5782 12.7441 17.6495 12.7146C17.7209 12.685 17.7819 12.6349 17.8248 12.5707C17.8677 12.5065 17.8906 12.431 17.8906 12.3537V10.0937C18.5089 9.59297 19.0226 8.96043 19.383 8.25379C19.7925 7.45121 20 6.58445 20 5.67758C20 2.54695 17.453 0 14.3225 0ZM17.265 9.59121C17.2166 9.62762 17.1774 9.67476 17.1504 9.72891C17.1234 9.78306 17.1094 9.84274 17.1094 9.90324V11.4111L16.1535 10.4557C16.1033 10.4055 16.0404 10.37 15.9715 10.3529C15.9027 10.3358 15.8304 10.3378 15.7626 10.3586C15.2977 10.5015 14.8131 10.5739 14.3225 10.5739H13.3338C10.6339 10.5739 8.4375 8.37742 8.4375 5.67758C8.4375 2.97773 10.634 0.78125 13.3338 0.78125H14.3225C17.0223 0.78125 19.2188 2.97773 19.2188 5.67758C19.2188 7.22957 18.5066 8.65605 17.265 9.59121Z" fill="black"/>
<path d="M15.5872 4.27423C15.5309 3.45646 14.8716 2.79724 14.0538 2.74087C13.5902 2.70904 13.1478 2.8654 12.8092 3.18154C12.4752 3.49329 12.2837 3.934 12.2837 4.39068C12.2837 4.60642 12.4586 4.7813 12.6743 4.7813C12.89 4.7813 13.0649 4.60642 13.0649 4.39068C13.0649 4.14619 13.1634 3.91958 13.3423 3.75267C13.5209 3.58591 13.7545 3.50337 14.0002 3.52033C14.4309 3.55001 14.7782 3.89724 14.8079 4.32798C14.8379 4.76302 14.5524 5.14747 14.1292 5.24216C13.7863 5.31888 13.5469 5.61685 13.5469 5.96673V6.90521C13.5469 7.12095 13.7218 7.29583 13.9375 7.29583C14.1532 7.29583 14.3281 7.12095 14.3281 6.90521V5.99794C15.1152 5.80779 15.6433 5.08755 15.5872 4.27423ZM14.2137 8.17419C14.141 8.10154 14.0402 8.05974 13.9375 8.05974C13.8348 8.05974 13.734 8.10154 13.6613 8.17419C13.5883 8.24762 13.5472 8.34684 13.5469 8.45037C13.5469 8.55349 13.5887 8.65427 13.6613 8.72693C13.734 8.79958 13.8348 8.84099 13.9375 8.84099C14.0402 8.84099 14.141 8.79958 14.2137 8.72693C14.2867 8.65335 14.3278 8.55401 14.3281 8.45037C14.3281 8.34763 14.2863 8.24685 14.2137 8.17419ZM10.7422 12.1093H2.5C2.2843 12.1093 2.10938 12.2842 2.10938 12.5C2.10938 12.7157 2.2843 12.8906 2.5 12.8906H10.7422C10.9579 12.8906 11.1328 12.7157 11.1328 12.5C11.1328 12.2842 10.9579 12.1093 10.7422 12.1093ZM11.0183 14.4113C10.9457 14.3386 10.8449 14.2968 10.7422 14.2968C10.6395 14.2968 10.5387 14.3386 10.466 14.4113C10.3933 14.484 10.3516 14.5847 10.3516 14.6875C10.3516 14.7902 10.3934 14.891 10.466 14.9636C10.5387 15.0363 10.6395 15.0781 10.7422 15.0781C10.8449 15.0781 10.9457 15.0363 11.0183 14.9636C11.0914 14.8903 11.1325 14.791 11.1328 14.6875C11.1328 14.5847 11.091 14.484 11.0183 14.4113ZM9.20574 14.2968H2.5C2.2843 14.2968 2.10938 14.4717 2.10938 14.6875C2.10938 14.9032 2.2843 15.0781 2.5 15.0781H9.20574C9.42148 15.0781 9.59637 14.9032 9.59637 14.6875C9.59637 14.4717 9.42145 14.2968 9.20574 14.2968ZM8.20312 9.92185H2.5C2.2843 9.92185 2.10938 10.0967 2.10938 10.3125C2.10938 10.5282 2.2843 10.7031 2.5 10.7031H8.20312C8.41887 10.7031 8.59375 10.5282 8.59375 10.3125C8.59375 10.0967 8.41883 9.92185 8.20312 9.92185Z" fill="black"/>
</g>
<defs>
<clipPath id="clip0_1518_852">
<rect width="20" height="20" fill="white"/>
</clipPath>
</defs>
</svg>
