<svg width="18" height="18" viewBox="0 0 18 18" fill="none" xmlns="http://www.w3.org/2000/svg">
<path d="M12.3333 17.75H2.33333C1.781 17.7493 1.25148 17.5296 0.860925 17.1391C0.470368 16.7485 0.250662 16.219 0.25 15.6667V2.33333C0.250662 1.781 0.470368 1.25148 0.860925 0.860925C1.25148 0.470367 1.781 0.250662 2.33333 0.25H8.775C9.05245 0.250186 9.3271 0.305537 9.58297 0.412834C9.83884 0.520131 10.0708 0.677232 10.2654 0.875L13.8229 4.51625C14.2045 4.9058 14.4177 5.42969 14.4167 5.975V9.07917C14.4167 9.18967 14.3728 9.29565 14.2946 9.37379C14.2165 9.45193 14.1105 9.49583 14 9.49583C13.8895 9.49583 13.7835 9.45193 13.7054 9.37379C13.6272 9.29565 13.5833 9.18967 13.5833 9.07917V5.975C13.5835 5.6479 13.4555 5.33377 13.2267 5.1L9.66875 1.45833C9.55216 1.33959 9.41308 1.24526 9.25962 1.18088C9.10616 1.11649 8.94142 1.08333 8.775 1.08333H2.33333C2.00181 1.08333 1.68387 1.21503 1.44945 1.44945C1.21503 1.68387 1.08333 2.00181 1.08333 2.33333V15.6667C1.08333 15.9982 1.21503 16.3161 1.44945 16.5505C1.68387 16.785 2.00181 16.9167 2.33333 16.9167H12.3333C12.4905 16.9173 12.6463 16.8868 12.7917 16.8271C12.8939 16.785 13.0086 16.7853 13.1106 16.8279C13.2126 16.8704 13.2936 16.9517 13.3356 17.054C13.3777 17.1562 13.3774 17.2709 13.3348 17.3729C13.2923 17.4749 13.211 17.5559 13.1088 17.5979C12.8627 17.699 12.5993 17.7506 12.3333 17.75Z" fill="black"/>
<path d="M13.8292 5.66665H11.0833C10.531 5.66599 10.0015 5.44628 9.61093 5.05573C9.22037 4.66517 9.00066 4.13565 9 3.58332V0.795817C9 0.68531 9.0439 0.579329 9.12204 0.501189C9.20018 0.423049 9.30616 0.37915 9.41667 0.37915C9.52717 0.37915 9.63316 0.423049 9.7113 0.501189C9.78944 0.579329 9.83333 0.68531 9.83333 0.795817V3.58332C9.83333 3.91484 9.96503 4.23278 10.1995 4.4672C10.4339 4.70162 10.7518 4.83332 11.0833 4.83332H13.8292C13.9397 4.83332 14.0457 4.87722 14.1238 4.95536C14.2019 5.0335 14.2458 5.13948 14.2458 5.24998C14.2458 5.36049 14.2019 5.46647 14.1238 5.54461C14.0457 5.62275 13.9397 5.66665 13.8292 5.66665ZM13.1667 17.6891C13.0024 17.6893 12.8417 17.6408 12.705 17.5496L11.3667 16.6571C10.5099 16.0874 9.80734 15.3145 9.3217 14.4075C8.83606 13.5004 8.5824 12.4872 8.58333 11.4583V10.745C8.58415 10.5575 8.64787 10.3757 8.7643 10.2288C8.88072 10.0818 9.0431 9.97824 9.22542 9.93457C10.4629 9.59252 11.6401 9.0614 12.7154 8.35998C12.85 8.27332 13.0066 8.22723 13.1667 8.22723C13.3267 8.22723 13.4834 8.27332 13.6179 8.35998C14.6932 9.06149 15.8704 9.59261 17.1079 9.93457C17.2902 9.97824 17.4526 10.0818 17.569 10.2288C17.6855 10.3757 17.7492 10.5575 17.75 10.745V11.4583C17.7512 12.4875 17.4977 13.501 17.012 14.4084C16.5264 15.3158 15.8237 16.0889 14.9667 16.6587L13.6288 17.5508C13.4918 17.6416 13.331 17.6898 13.1667 17.6891ZM13.1667 9.05998C12.0147 9.81151 10.753 10.3797 9.42667 10.7442L9.41667 11.4583C9.41566 12.3503 9.63538 13.2286 10.0562 14.015C10.4771 14.8014 11.086 15.4715 11.8288 15.9654L13.1667 16.8558L14.5046 15.9637C15.2471 15.47 15.8558 14.8002 16.2767 14.0141C16.6975 13.228 16.9174 12.35 16.9167 11.4583V10.745C15.5871 10.3807 14.3221 9.81241 13.1667 9.0604V9.05998Z" fill="black"/>
<path d="M12.75 14C12.6395 14 12.5335 13.9561 12.4554 13.878L11.6221 13.0446C11.5462 12.966 11.5042 12.8608 11.5051 12.7515C11.5061 12.6423 11.5499 12.5378 11.6272 12.4605C11.7044 12.3833 11.8089 12.3395 11.9182 12.3385C12.0274 12.3376 12.1327 12.3796 12.2113 12.4555L12.75 12.9942L14.1221 11.6221C14.2007 11.5462 14.3059 11.5042 14.4152 11.5052C14.5244 11.5061 14.6289 11.5499 14.7062 11.6272C14.7834 11.7045 14.8272 11.809 14.8282 11.9182C14.8291 12.0275 14.7871 12.1327 14.7113 12.2113L13.0446 13.878C12.9665 13.9561 12.8605 14 12.75 14ZM6.5 4.41671H3.16667C3.05616 4.41671 2.95018 4.37281 2.87204 4.29467C2.7939 4.21653 2.75 4.11055 2.75 4.00004C2.75 3.88953 2.7939 3.78355 2.87204 3.70541C2.95018 3.62727 3.05616 3.58337 3.16667 3.58337H6.5C6.61051 3.58337 6.71649 3.62727 6.79463 3.70541C6.87277 3.78355 6.91667 3.88953 6.91667 4.00004C6.91667 4.11055 6.87277 4.21653 6.79463 4.29467C6.71649 4.37281 6.61051 4.41671 6.5 4.41671ZM9 6.91671H3.16667C3.05616 6.91671 2.95018 6.87281 2.87204 6.79467C2.7939 6.71653 2.75 6.61055 2.75 6.50004C2.75 6.38953 2.7939 6.28355 2.87204 6.20541C2.95018 6.12727 3.05616 6.08337 3.16667 6.08337H9C9.11051 6.08337 9.21649 6.12727 9.29463 6.20541C9.37277 6.28355 9.41667 6.38953 9.41667 6.50004C9.41667 6.61055 9.37277 6.71653 9.29463 6.79467C9.21649 6.87281 9.11051 6.91671 9 6.91671ZM9.83333 9.41671H3.16667C3.05616 9.41671 2.95018 9.37281 2.87204 9.29467C2.7939 9.21653 2.75 9.11055 2.75 9.00004C2.75 8.88953 2.7939 8.78355 2.87204 8.70541C2.95018 8.62727 3.05616 8.58337 3.16667 8.58337H9.83333C9.94384 8.58337 10.0498 8.62727 10.128 8.70541C10.2061 8.78355 10.25 8.88953 10.25 9.00004C10.25 9.11055 10.2061 9.21653 10.128 9.29467C10.0498 9.37281 9.94384 9.41671 9.83333 9.41671ZM7.33333 11.9167H3.16667C3.05616 11.9167 2.95018 11.8728 2.87204 11.7947C2.7939 11.7165 2.75 11.6105 2.75 11.5C2.75 11.3895 2.7939 11.2836 2.87204 11.2054C2.95018 11.1273 3.05616 11.0834 3.16667 11.0834H7.33333C7.44384 11.0834 7.54982 11.1273 7.62796 11.2054C7.7061 11.2836 7.75 11.3895 7.75 11.5C7.75 11.6105 7.7061 11.7165 7.62796 11.7947C7.54982 11.8728 7.44384 11.9167 7.33333 11.9167ZM7.33333 14.4167H3.16667C3.05616 14.4167 2.95018 14.3728 2.87204 14.2947C2.7939 14.2165 2.75 14.1105 2.75 14C2.75 13.8895 2.7939 13.7836 2.87204 13.7054C2.95018 13.6273 3.05616 13.5834 3.16667 13.5834H7.33333C7.44384 13.5834 7.54982 13.6273 7.62796 13.7054C7.7061 13.7836 7.75 13.8895 7.75 14C7.75 14.1105 7.7061 14.2165 7.62796 14.2947C7.54982 14.3728 7.44384 14.4167 7.33333 14.4167Z" fill="black"/>
</svg>
