<svg width="18" height="20" viewBox="0 0 18 20" fill="none" xmlns="http://www.w3.org/2000/svg">
<path d="M9 9.99998C10.3783 9.99998 11.5 8.87831 11.5 7.49998C11.5 6.12165 10.3783 4.99998 9 4.99998C7.62167 4.99998 6.5 6.12165 6.5 7.49998C6.5 8.87831 7.62167 9.99998 9 9.99998ZM9 5.83331C9.91917 5.83331 10.6667 6.58081 10.6667 7.49998C10.6667 8.41915 9.91917 9.16665 9 9.16665C8.08083 9.16665 7.33333 8.41915 7.33333 7.49998C7.33333 6.58081 8.08083 5.83331 9 5.83331ZM12.7333 13.1475C12.7597 13.1967 12.7759 13.2506 12.781 13.3062C12.7862 13.3617 12.7801 13.4178 12.7631 13.4709C12.7462 13.5241 12.7187 13.5733 12.6824 13.6157C12.6461 13.658 12.6016 13.6926 12.5516 13.7175C12.5017 13.7423 12.4472 13.7569 12.3915 13.7603C12.3358 13.7637 12.28 13.7559 12.2274 13.7373C12.1748 13.7187 12.1265 13.6898 12.0852 13.6521C12.044 13.6145 12.0108 13.569 11.9875 13.5183C11.7132 12.9608 11.2878 12.4915 10.7597 12.1639C10.2317 11.8364 9.62221 11.6638 9.00083 11.6658C8.38859 11.6647 7.78793 11.8326 7.26505 12.1511C6.74217 12.4696 6.31738 12.9263 6.0375 13.4708C5.9834 13.5629 5.89608 13.6307 5.79351 13.6604C5.69093 13.69 5.58089 13.6792 5.48602 13.6302C5.39114 13.5813 5.31864 13.4978 5.28342 13.397C5.2482 13.2962 5.25294 13.1857 5.29667 13.0883C5.64632 12.4077 6.17716 11.8369 6.83064 11.4388C7.48411 11.0408 8.23483 10.831 9 10.8325C9.77659 10.8297 10.5383 11.0452 11.1984 11.4544C11.8585 11.8636 12.3903 12.4499 12.7333 13.1466V13.1475ZM16.9158 12.0875L16.2917 11.7341C16.43 11.1575 16.5 10.5758 16.5 9.99915C16.5 9.42248 16.43 8.84081 16.2917 8.26415L16.915 7.91165C17.3992 7.63748 17.7475 7.19081 17.8958 6.65498C18.0442 6.11915 17.975 5.55665 17.7008 5.07248C17.4267 4.58831 16.9808 4.23915 16.4442 4.09081C16.1807 4.01648 15.905 3.99544 15.6333 4.02893C15.3616 4.06241 15.0992 4.14974 14.8617 4.28581L14.2358 4.63998C13.3531 3.77546 12.2696 3.14352 11.0825 2.80081V2.08248C11.0825 0.934145 10.1475 -0.000854492 8.99917 -0.000854492C7.85083 -0.000854492 6.91583 0.934145 6.91583 2.08248V2.80081C5.72882 3.14371 4.64538 3.77563 3.7625 4.63998L3.13666 4.28581C2.89886 4.15035 2.63656 4.06337 2.36493 4.0299C2.09331 3.99643 1.81774 4.01713 1.55416 4.09081C1.29027 4.16313 1.04333 4.28705 0.827626 4.45541C0.611924 4.62376 0.431741 4.83321 0.297498 5.07165C0.0233311 5.55665 -0.0458356 6.11831 0.102498 6.65415C0.250831 7.18998 0.599164 7.63665 1.08416 7.91081L1.7075 8.26331C1.56916 8.83998 1.49916 9.42248 1.49916 9.99831C1.49916 10.5741 1.56916 11.1566 1.7075 11.7333L1.08333 12.0866C0.603181 12.3595 0.250815 12.8115 0.103502 13.3438C-0.0438102 13.876 0.0259544 14.4449 0.297498 14.9258C0.570013 15.4063 1.02204 15.759 1.55435 15.9065C2.08666 16.0539 2.65574 15.9842 3.13666 15.7125L3.7625 15.3583C4.64495 16.2232 5.72855 16.8552 6.91583 17.1975V17.9158C6.91583 19.0641 7.85083 19.9991 8.99917 19.9991C10.1475 19.9991 11.0825 19.0641 11.0825 17.9158V17.1975C12.2696 16.8547 13.353 16.2228 14.2358 15.3583L14.8617 15.7125C15.3427 15.9837 15.9116 16.0532 16.4438 15.9058C16.976 15.7583 17.428 15.4059 17.7008 14.9258C17.9722 14.4449 18.0418 13.876 17.8945 13.3439C17.7472 12.8117 17.395 12.3596 16.915 12.0866L16.9158 12.0875ZM16.9767 14.5166C16.8127 14.8044 16.5415 15.0155 16.2223 15.1038C15.9031 15.1922 15.562 15.1507 15.2733 14.9883L14.3692 14.4758C14.2879 14.4298 14.1935 14.4124 14.1012 14.4265C14.0088 14.4405 13.9239 14.4852 13.86 14.5533C12.9742 15.5009 11.8301 16.1681 10.5692 16.4725C10.4784 16.4945 10.3976 16.5464 10.3399 16.6199C10.2822 16.6933 10.2508 16.7841 10.2508 16.8775V17.9166C10.2508 18.6058 9.69 19.1666 9.00083 19.1666C8.31167 19.1666 7.75083 18.6058 7.75083 17.9166V16.8775C7.75086 16.7841 7.71948 16.6933 7.66175 16.6199C7.60402 16.5464 7.52328 16.4945 7.4325 16.4725C6.1717 16.1678 5.0277 15.5006 4.14166 14.5533C4.07787 14.4847 3.99276 14.4398 3.90017 14.4257C3.80758 14.4116 3.71295 14.4293 3.63166 14.4758L2.7275 14.9883C2.43879 15.1509 2.09742 15.1926 1.77806 15.1042C1.4587 15.0158 1.18734 14.8046 1.02333 14.5166C0.860702 14.2279 0.819024 13.8866 0.907414 13.5672C0.995804 13.2478 1.20707 12.9765 1.495 12.8125L2.3975 12.3016C2.47872 12.2555 2.5421 12.1835 2.57746 12.097C2.61282 12.0106 2.61812 11.9148 2.5925 11.825C2.42 11.2191 2.3325 10.605 2.3325 9.99998C2.3325 9.39498 2.42 8.78081 2.5925 8.17415C2.61805 8.08424 2.61263 7.98836 2.57711 7.90191C2.54159 7.81545 2.47804 7.74346 2.39666 7.69748L1.495 7.18665C1.35184 7.10609 1.22607 6.99797 1.12495 6.86852C1.02382 6.73907 0.949349 6.59087 0.905831 6.43248C0.861583 6.27423 0.849184 6.10878 0.869354 5.9457C0.889524 5.78263 0.94186 5.62518 1.02333 5.48248C1.1875 5.19248 1.45583 4.98331 1.7775 4.89415C2.09833 4.80498 2.43583 4.84665 2.72666 5.01081L3.63083 5.52331C3.71199 5.56977 3.80648 5.5874 3.89893 5.57333C3.99138 5.55926 4.07634 5.51431 4.14 5.44581C5.02579 4.4982 6.16989 3.83098 7.43083 3.52665C7.52161 3.5046 7.60235 3.45268 7.66009 3.37923C7.71782 3.30579 7.74919 3.21507 7.74917 3.12165V2.08248C7.74917 1.39331 8.31 0.832479 8.99917 0.832479C9.68833 0.832479 10.2492 1.39331 10.2492 2.08248V3.12165C10.2491 3.21507 10.2805 3.30579 10.3382 3.37923C10.396 3.45268 10.4767 3.5046 10.5675 3.52665C11.8284 3.83116 12.9724 4.49835 13.8583 5.44581C13.9222 5.51393 14.0072 5.5586 14.0995 5.57265C14.1918 5.58671 14.2862 5.56933 14.3675 5.52331L15.2717 5.01081C15.5633 4.84665 15.9017 4.80498 16.2208 4.89415C16.5425 4.98331 16.8108 5.19248 16.975 5.48331C17.1392 5.77415 17.1817 6.11081 17.0925 6.43248C17.0491 6.59091 16.9746 6.73915 16.8735 6.86861C16.7724 6.99806 16.6465 7.10616 16.5033 7.18665L15.6008 7.69748C15.5195 7.74346 15.4559 7.81545 15.4204 7.90191C15.3849 7.98836 15.3795 8.08424 15.405 8.17415C15.5775 8.78081 15.665 9.39498 15.665 9.99998C15.665 10.605 15.5775 11.2191 15.405 11.825C15.3795 11.9148 15.3849 12.0106 15.4202 12.097C15.4556 12.1834 15.5189 12.2554 15.6 12.3016L16.5025 12.8125C17.1025 13.1525 17.3142 13.9166 16.9742 14.5166H16.9767Z" fill="black"/>
</svg>
