<svg width="20" height="20" viewBox="0 0 20 20" fill="none" xmlns="http://www.w3.org/2000/svg">
<path d="M9.9975 0.8125C4.10833 0.85 0.833332 4.2025 0.833332 10.0075C0.833332 15.9308 4.0275 19.1525 10.0025 19.1875C15.9725 19.1525 19.0558 16.0633 19.1667 9.9925C19.065 4.11083 15.8108 0.85 9.9975 0.8125ZM10.0025 18.3542C4.49833 18.3217 1.77167 15.5892 1.66667 10C1.7675 4.49167 4.57167 1.68083 9.9975 1.64667C13.735 1.67083 18.2158 3.14167 18.3333 9.99333C18.2308 15.5875 15.5042 18.3217 10.0025 18.3542Z" fill="black"/>
<path d="M9.9975 4.81921C8.01583 4.83171 6.90583 5.94255 6.87 7.94838C6.86901 8.0031 6.8788 8.05748 6.89883 8.10841C6.91885 8.15935 6.94872 8.20584 6.98671 8.24522C7.02471 8.28461 7.07009 8.31613 7.12027 8.33798C7.17045 8.35982 7.22444 8.37157 7.27916 8.37255C7.5025 8.35838 7.69917 8.19255 7.70333 7.96338C7.73083 6.39671 8.46167 5.66171 9.9975 5.65255C11.5192 5.66255 12.2708 6.41755 12.2975 7.94838C12.2683 9.53755 11.5583 10.2509 9.9975 10.2592C9.88743 10.2599 9.78209 10.3041 9.70449 10.3821C9.62689 10.4602 9.58333 10.5658 9.58333 10.6759V12.0825C9.58333 12.1931 9.62723 12.299 9.70537 12.3772C9.78351 12.4553 9.88949 12.4992 10 12.4992C10.1105 12.4992 10.2165 12.4553 10.2946 12.3772C10.3728 12.299 10.4167 12.1931 10.4167 12.0825V11.0734C12.16 10.9217 13.0958 9.85255 13.1308 7.94838C13.0958 5.94338 11.985 4.83171 9.9975 4.81921ZM10 14.1667C9.83413 14.1667 9.67505 14.2326 9.55776 14.3499C9.44047 14.4672 9.37458 14.6263 9.37458 14.7921C9.37458 14.958 9.44047 15.1171 9.55776 15.2344C9.67505 15.3517 9.83413 15.4175 10 15.4175C10.1659 15.4175 10.3249 15.3517 10.4422 15.2344C10.5595 15.1171 10.6254 14.958 10.6254 14.7921C10.6254 14.6263 10.5595 14.4672 10.4422 14.3499C10.3249 14.2326 10.1659 14.1667 10 14.1667Z" fill="black"/>
</svg>
