<svg width="20" height="20" viewBox="0 0 20 20" fill="none" xmlns="http://www.w3.org/2000/svg">
<g clip-path="url(#clip0_1518_788)">
<path d="M10 0C4.48583 0 0 4.48583 0 10C0 15.5142 4.48583 20 10 20C15.5142 20 20 15.5142 20 10C20 4.48583 15.5142 0 10 0ZM5.83333 18.1642V17.5C5.83333 15.2025 7.7025 13.3333 10 13.3333C12.2975 13.3333 14.1667 15.2025 14.1667 17.5V18.1642C12.9158 18.805 11.4992 19.1667 10 19.1667C8.50083 19.1667 7.08417 18.805 5.83333 18.1642ZM15 17.6792V17.5C15 14.7425 12.7575 12.5 10 12.5C7.2425 12.5 5 14.7425 5 17.5V17.6792C2.49333 16.0417 0.833333 13.2108 0.833333 10C0.833333 4.94583 4.94583 0.833333 10 0.833333C15.0542 0.833333 19.1667 4.94583 19.1667 10C19.1667 13.2108 17.5067 16.0417 15 17.6792ZM10 4.16667C8.16167 4.16667 6.66667 5.66167 6.66667 7.5C6.66667 9.33833 8.16167 10.8333 10 10.8333C11.8383 10.8333 13.3333 9.33833 13.3333 7.5C13.3333 5.66167 11.8383 4.16667 10 4.16667ZM10 10C8.62167 10 7.5 8.87833 7.5 7.5C7.5 6.12167 8.62167 5 10 5C11.3783 5 12.5 6.12167 12.5 7.5C12.5 8.87833 11.3783 10 10 10Z" fill="black"/>
</g>
<defs>
<clipPath id="clip0_1518_788">
<rect width="20" height="20" fill="white"/>
</clipPath>
</defs>
</svg>
